<?xml version="1.0" standalone="no"?>
<!DOCTYPE svg PUBLIC "-//W3C//DTD SVG 1.1//EN" "http://www.w3.org/Graphics/SVG/1.1/DTD/svg11.dtd" >
<svg xmlns="http://www.w3.org/2000/svg" xmlns:xlink="http://www.w3.org/1999/xlink" version="1.1">
<metadata></metadata>
<defs>
<font id="freight_dispmedium_italic" horiz-adv-x="379" >
<font-face units-per-em="1000" ascent="750" descent="-250" />
<missing-glyph horiz-adv-x="139" />
<glyph unicode="&#xfb01;" horiz-adv-x="467" d="M-82 -200q-33 0 -55.5 16.5t-22.5 42.5q0 19 14 34.5t35 15.5q27 0 42 -25.5t3 -54.5q10 0 15 1q4 0 11.5 0.5t9.5 0.5q23 6 42 62.5t50 205.5l56 294l-84 2l11 33l83 7q25 114 88 177q60 60 147 60q43 0 69.5 -21.5t26.5 -52.5q0 -20 -13.5 -34t-35.5 -14 q-32 0 -43 26.5t8 52.5q-16 4 -23 7q-30 7 -39 7q-38 -10 -63.5 -59t-45.5 -151h125q20 13 40 13q21 0 42.5 -21t21.5 -41q0 -19 -117 -341l52 -8l70 90l8 -7q-29 -61 -65 -96t-61 -35q-16 0 -48 15t-32 24q0 21 125 365l-3 3h-166l-57 -266q-51 -223 -114 -287 q-38 -41 -107 -41z" />
<glyph unicode="&#xfb02;" horiz-adv-x="478" d="M507 673l-177 -631l43 -7l69 90l10 -7q-31 -62 -64.5 -96.5t-58.5 -34.5q-16 0 -47 13t-29 20l144 534q-24 7 -29.5 31t11.5 44q-16 4 -23 7q-35 7 -46 7q-38 -10 -62.5 -59.5t-43.5 -150.5h111l-9 -39h-110l-57 -266q-51 -223 -114 -287q-38 -41 -107 -41 q-33 0 -55.5 16.5t-22.5 42.5q0 19 14 34.5t35 15.5q27 0 42 -25.5t3 -54.5q10 0 15 1q4 0 12 0.5t10 0.5q23 6 43 65t49 203l54 294l-83 2l11 33l83 7q25 114 88 177q60 60 143 60q42 0 71 -20z" />
<glyph unicode="&#xfb03;" horiz-adv-x="700" d="M395 536q-1 -1 -3 -1h-5q-30 0 -41.5 26.5t8.5 51.5q-12 4 -18 7q-26 7 -33 7q-37 -9 -59.5 -57t-39.5 -137l156 1q14 61 35 102zM435 596q3 5 14 16q60 60 146 60q43 0 70 -22t27 -52q0 -20 -13.5 -34t-36.5 -14q-31 0 -41.5 26.5t7.5 52.5q-16 4 -23 7q-30 7 -39 7 q-38 -10 -64 -59.5t-45 -150.5h125q20 13 40 13t42 -21t22 -41q0 -7 -10 -38.5t-26 -77t-31.5 -87.5t-31 -84.5t-19.5 -53.5l52 -8l70 90l9 -7q-28 -60 -65 -95.5t-62 -35.5q-16 0 -48 15t-32 24q0 21 125 365l-3 3h-165l-52 -236q-51 -222 -115 -287q-41 -41 -98 -41 q-33 0 -54 16.5t-21 42.5q0 19 14 34.5t35 15.5q27 0 40.5 -25.5t1.5 -54.5q7 0 10 1q4 0 9.5 0.5t7.5 0.5q24 6 44.5 65.5t49.5 202.5l49 265h-154l-57 -266q-50 -217 -118 -287q-38 -41 -103 -41q-33 0 -55.5 16.5t-22.5 42.5q0 19 14 34.5t35 15.5q27 0 42 -25.5t3 -54.5 q10 0 15 1q4 0 11.5 0.5t9.5 0.5q23 6 42 62.5t50 205.5l56 294l-84 2l11 33l83 7q23 104 88 169q52 52 128 52q38 0 61.5 -17t29.5 -43z" />
<glyph unicode="&#xfb04;" horiz-adv-x="711" d="M395 536q-1 -1 -3 -1h-5q-30 0 -41.5 26.5t8.5 51.5q-12 4 -18 7q-26 7 -33 7q-37 -9 -59.5 -57t-39.5 -137l156 1q14 61 35 102zM662 651l12 3q4 2 27 8q33 9 39 11l-177 -631l43 -7l69 90l9 -7q-31 -62 -64 -96.5t-58 -34.5q-16 0 -47.5 12.5t-29.5 20.5l144 534 q-23 6 -28.5 30.5t10.5 44.5q-16 4 -23 7q-30 7 -46 7q-38 -10 -62 -58.5t-43 -151.5h111l-10 -39h-109l-52 -236q-51 -222 -115 -287q-41 -41 -98 -41q-33 0 -54 16.5t-21 42.5q0 19 14 34.5t35 15.5q27 0 40.5 -25.5t1.5 -54.5q7 0 10 1q4 0 9.5 0.5t7.5 0.5 q24 6 44.5 65.5t49.5 202.5l49 265h-154l-57 -266q-50 -217 -118 -287q-38 -41 -103 -41q-33 0 -55.5 16.5t-22.5 42.5q0 19 14 34.5t35 15.5q27 0 42 -25.5t3 -54.5q10 0 15 1q4 0 11.5 0.5t9.5 0.5q23 6 42 62.5t50 205.5l56 294l-84 2l11 33l83 7q23 104 88 169 q52 52 128 52q38 0 61.5 -17t29.5 -43q3 5 14 16q60 60 143 60q44 0 70 -21z" />
<glyph horiz-adv-x="0" />
<glyph horiz-adv-x="333" />
<glyph unicode=" "  horiz-adv-x="139" />
<glyph unicode="&#x09;" horiz-adv-x="139" />
<glyph unicode="&#xa0;" horiz-adv-x="139" />
<glyph unicode="!" horiz-adv-x="260" d="M129 189q0 -2 -3 -3t-5.5 0.5t-2.5 3.5l32 406q3 22 14 34t41 9h3q57 -4 42 -53zM100 -14q-26 0 -43.5 17.5t-17.5 41.5t17 40.5t43 16.5t42.5 -16.5t16.5 -40.5t-16.5 -41.5t-41.5 -17.5z" />
<glyph unicode="&#x22;" horiz-adv-x="334" d="M343 646h1l61 -27l-184 -216h-19zM180 646h2l61 -27l-185 -216h-19z" />
<glyph unicode="#" horiz-adv-x="516" d="M328 206l56 211h-165l-56 -211h165zM139 189h-136v17h141l55 211h-136v17h141l52 198h20l-53 -198h165l53 198h19l-52 -198h135v-17h-140l-55 -211h135v-17h-140l-51 -194h-19l51 194h-165l-52 -194h-19z" />
<glyph unicode="$" horiz-adv-x="499" d="M105 -3q-69 16 -110 38l23 155h16l18 -82q19 -54 65 -81q3 7 8.5 20.5t8.5 20.5q4 10 17 41.5t21 49.5q35 86 55 132h-1q-70 39 -106.5 80.5t-36.5 97.5q0 68 57.5 118.5t143.5 50.5q46 0 83 -9l45 110h20q-14 -31 -24 -57q-7 -14 -16 -40q-2 -4 -4 -10.5t-3 -7.5 q28 -7 54 -17l42 10l-31 -169l-15 1l-31 124q-11 10 -32 22l-23 -56l-46 -112l-23 -56l6 -3q74 -41 112.5 -84t38.5 -101q0 -78 -66 -137t-168 -59q-43 0 -80 6l-65 -158h-20zM356 603q-33 15 -70 15q-50 0 -85 -30.5t-35 -78.5q0 -40 25 -69.5t73 -58.5zM134 19 q32 -12 69 -12q62 0 104 41t42 99q0 40 -27 72t-79 63z" />
<glyph unicode="%" horiz-adv-x="608" d="M200 384q52 0 85 35t33 86q0 50 -31 83.5t-81 33.5q-52 0 -85 -36t-33 -88q0 -51 30.5 -82.5t81.5 -31.5zM199 364q-59 0 -96.5 37.5t-37.5 95.5q0 60 40 102.5t102 42.5q60 0 97.5 -38.5t37.5 -95.5q0 -60 -40.5 -102t-102.5 -42zM443 4q52 0 85 35.5t33 87.5 q0 49 -31.5 82t-80.5 33q-52 0 -85 -36t-33 -88q0 -51 30.5 -82.5t81.5 -31.5zM441 -16q-59 0 -96 37.5t-37 94.5q0 61 39.5 103.5t102.5 42.5q59 0 96.5 -38.5t37.5 -95.5q0 -60 -40.5 -102t-102.5 -42zM609 640h26l-597 -654h-27z" />
<glyph unicode="&#x26;" horiz-adv-x="720" d="M264 437q10 -33 34.5 -55t53.5 -22q8 0 14.5 6t6.5 14q0 23 -28 40t-69 17h-12zM619 373q40 -14 62.5 -49t22.5 -83q0 -104 -105.5 -179.5t-253.5 -75.5q-140 0 -232 69.5t-92 175.5q0 69 44 125.5t115 80.5q-6 19 -6 40q0 64 49 114t115 48q58 0 93.5 -51t27.5 -119 l-16 3q2 46 -22 80t-69 34q-39 0 -66 -33.5t-27 -82.5q0 -12 1 -17h16q54 0 87.5 -23t33.5 -59q0 -24 -20 -39.5t-53 -15.5q-44 0 -82.5 29t-55.5 75q-87 -37 -87 -135q0 -112 86 -172.5t247 -60.5q113 0 184 53.5t71 136.5q0 46 -29.5 81.5t-67.5 35.5q-39 0 -76.5 -28.5 t-37.5 -57.5q0 -24 21 -38.5t57 -16.5q-14 5 -17 22.5t8 32.5t32 15q18 0 30 -11.5t12 -28.5q0 -21 -15 -36t-40 -15q-49 0 -82.5 33t-33.5 86q0 39 28.5 66t69.5 41.5t82 28t69.5 36.5t28.5 56q0 30 -21 48t-58 20q12 -7 15 -25t-7.5 -34.5t-32.5 -16.5q-20 0 -32 12.5 t-12 32.5q0 21 19 37t42 16q50 0 84 -39t34 -97q0 -45 -29.5 -72t-108.5 -53z" />
<glyph unicode="'" horiz-adv-x="173" d="M180 646h2l61 -27l-185 -216h-19z" />
<glyph unicode="(" horiz-adv-x="340" d="M252 -264q-39 25 -76.5 68.5t-69.5 103.5t-45 141t0 166q12 85 49 160.5t86 128.5t97.5 88.5t95.5 55.5l12 -18q-45 -19 -92.5 -54.5t-93.5 -87t-81.5 -123.5t-47.5 -152q-24 -155 35.5 -280.5t144.5 -179.5z" />
<glyph unicode=")" horiz-adv-x="340" d="M-69 -246q45 19 92 54.5t93.5 86.5t81.5 123.5t47 152.5q11 86 0.5 158t-41 133t-65.5 102.5t-73 66.5l13 17q39 -26 76.5 -69.5t69 -103.5t45 -140t1.5 -165q-13 -85 -50 -161t-86 -129t-98 -88.5t-95 -55.5z" />
<glyph unicode="*" horiz-adv-x="317" d="M193 355l11 108q0 2 -4 3.5t-5 0.5l-65 -84h-66q0 1 -1 1l-1 2q-2 4 -1 5l28 60l103 21q2 0 2 4t-2 6l-98 39l-21 62q1 1 2 4l2 2t1 2l67 -10l51 -95q0 -1 2 -1.5t4.5 1t2.5 2.5l9 110l51 35q4 0 5 -1t3 -1l13 -63l-76 -82q-2 -2 0.5 -5.5t5.5 -3.5l106 30l50 -41v-4v-4 l-56 -32l-100 46q-2 1 -5 -2t-2 -5l61 -93l-22 -60l-7 -2z" />
<glyph unicode="+" horiz-adv-x="447" d="M214 223h-196l3 25h193l1 197h25v-197h193l3 -25h-196v-200h-25z" />
<glyph unicode="," horiz-adv-x="194" d="M-40 -117q44 17 77 49.5t33 67.5q0 32 -26 47t-45 2q-6 23 11.5 45.5t48.5 22.5q33 0 54.5 -22.5t21.5 -57.5q0 -52 -51 -97t-116 -65z" />
<glyph unicode="-" horiz-adv-x="294" d="M33 256h244l-7 -44h-247z" />
<glyph unicode="." horiz-adv-x="209" d="M74 -13q-26 0 -44 18.5t-18 43.5q0 24 17.5 42t43.5 18q27 0 44.5 -17.5t17.5 -42.5t-17.5 -43.5t-43.5 -18.5z" />
<glyph unicode="/" horiz-adv-x="258" d="M225 641h21l-211 -877h-22z" />
<glyph unicode="0" horiz-adv-x="518" d="M229 3q71 0 121 93.5t50 221.5q0 69 -29.5 108.5t-78.5 39.5q-71 0 -120 -94.5t-49 -227.5q0 -69 27.5 -105t78.5 -36zM237 -13q-90 0 -145 60.5t-55 157.5q0 115 73.5 196.5t175.5 81.5q90 0 145 -60.5t55 -157.5q0 -116 -73 -197t-176 -81z" />
<glyph unicode="1" horiz-adv-x="350" d="M19 15l47 4q37 1 41 18l73 390l-102 16l4 13l189 22l-84 -443q-2 -4 1 -7t13 -5.5t29 -3.5l42 -4l2 -15h-258z" />
<glyph unicode="2" horiz-adv-x="446" d="M-14 24q188 132 249.5 189.5t61.5 111.5q0 49 -28 75.5t-75 26.5q-67 0 -124 -68l-6 11q79 112 188 112q57 0 95 -33.5t38 -83.5q0 -17 -3.5 -32.5t-13.5 -32t-18.5 -29t-29 -30t-33 -28.5t-42.5 -31.5t-47 -32t-56 -37t-60 -39.5v-3h174q47 0 77 22t65 78l11 18h16 l-76 -188h-363v24z" />
<glyph unicode="3" horiz-adv-x="405" d="M93 -200q-62 0 -105 18t-43 57q0 20 14.5 34.5t36.5 14.5q28 0 47.5 -27.5t2.5 -59.5q30 -17 62 -17q62 0 106 51t44 120q0 62 -38.5 100t-106.5 38q-30 0 -60 -8l-5 12q119 51 172.5 92.5t53.5 103.5q0 43 -27 71t-72 28q-37 0 -72 -21.5t-60 -55.5l-7 11q33 52 84.5 86 t110.5 34q56 0 95 -35t39 -86q0 -114 -187 -182v-2q3 1 11 1q70 -6 111.5 -51t41.5 -107q0 -85 -76.5 -152.5t-172.5 -67.5z" />
<glyph unicode="4" horiz-adv-x="476" d="M248 78l55 286h-3l-259 -286h207zM236 19h-264v14l403 445h26l-75 -400h111l-17 -59h-106l-38 -203h-77z" />
<glyph unicode="5" horiz-adv-x="402" d="M60 -200q-56 6 -86 26t-28 54q2 20 17.5 32.5t37.5 10.5q51 -4 58 -93q15 -7 38 -10q54 -4 99 38.5t51 110.5q6 77 -53 133.5t-157 81.5l103 284h257l-26 -84h-239l-46 -129q118 -29 181.5 -93t57.5 -151q-6 -91 -85.5 -156t-179.5 -55z" />
<glyph unicode="6" horiz-adv-x="493" d="M228 5q58 0 100.5 60.5t42.5 147.5q0 65 -30 106t-84 41q-56 0 -112 -54q-26 -69 -26 -132q0 -169 109 -169zM229 -12q-89 0 -140.5 64t-51.5 156q0 76 36.5 150.5t101.5 135t164 99t215 41.5l1 -14q-146 -17 -250.5 -95t-157.5 -195l5 -1q75 65 155 65q70 0 111 -43.5 t41 -120.5q0 -101 -70 -171.5t-160 -70.5z" />
<glyph unicode="7" horiz-adv-x="430" d="M398 385l-1 4h-136q-103 0 -136 -10t-52 -53l-14 -25h-16l52 167h363v-17l-359 -635h-61z" />
<glyph unicode="8" horiz-adv-x="481" d="M306 345q93 47 93 153q0 52 -26 89.5t-77 37.5q-50 0 -80 -35.5t-30 -85.5q0 -45 32.5 -83t87.5 -76zM233 1q56 0 90.5 36t34.5 88q0 17 -3.5 32t-14 31t-16.5 25.5t-25 26t-25 22t-29.5 23.5t-27.5 21q-115 -52 -115 -168q0 -59 34 -98t97 -39zM227 -16q-84 0 -144.5 47 t-60.5 118q0 66 51 109.5t131 56.5v2q-97 73 -98 151q0 69 55 121t137 52q76 0 128 -44t52 -111q0 -116 -159 -149v-2q56 -42 87 -81.5t31 -92.5q0 -77 -61 -127t-149 -50z" />
<glyph unicode="9" horiz-adv-x="493" d="M244 113q53 0 112 55q26 70 26 132q0 168 -109 168q-58 0 -100.5 -60t-42.5 -147q0 -65 30 -106.5t84 -41.5zM-54 -146q146 17 250.5 95t157.5 195h-5q-75 -65 -155 -65q-70 0 -111 44t-41 121q0 101 70 171.5t160 70.5q89 0 140.5 -64t51.5 -156q0 -76 -36.5 -150.5 t-101.5 -135t-164 -99t-215 -41.5z" />
<glyph unicode=":" horiz-adv-x="208" d="M132 292q-26 0 -44.5 18.5t-18.5 43.5q0 24 18 41.5t44 17.5t43.5 -17.5t17.5 -41.5q0 -25 -17 -43.5t-43 -18.5zM74 -13q-26 0 -44 18.5t-18 43.5q0 24 17.5 41.5t43.5 17.5t44 -17.5t18 -41.5q0 -25 -17.5 -43.5t-43.5 -18.5z" />
<glyph unicode=";" horiz-adv-x="194" d="M127 292q-27 0 -45.5 18.5t-18.5 42.5t18 42t45 18q26 0 43.5 -18t17.5 -42q0 -25 -17 -43t-43 -18zM-40 -116q45 17 77.5 49t32.5 67q0 32 -25.5 46t-45.5 3q-6 23 11.5 45t48.5 22q32 0 54 -22.5t22 -56.5q0 -51 -51 -96.5t-116 -65.5z" />
<glyph unicode="&#x3c;" horiz-adv-x="438" d="M12 228v15l399 194l8 -22l-369 -178v-2l369 -180l-8 -22z" />
<glyph unicode="=" horiz-adv-x="444" d="M23 334h398l-3 -23h-392zM26 159h392l3 -23h-398z" />
<glyph unicode="&#x3e;" horiz-adv-x="438" d="M20 55l368 180v2l-368 178l7 22l399 -194v-15l-399 -195z" />
<glyph unicode="?" horiz-adv-x="321" d="M142 183q-63 59 -63 109q0 42 29.5 64.5t95.5 42.5q30 9 43 13.5t30 11.5t23 13t11 15t5 21q0 35 -42 62t-120 27q-30 0 -47 -4q-4 9 -4 23q0 26 13 42t51 16q77 0 123.5 -49t46.5 -115q0 -61 -28.5 -94.5t-92.5 -54.5q-68 -23 -81 -35q-17 -14 -17 -37q0 -31 38 -69z M112 -14q-26 0 -43 17.5t-17 41.5t16.5 40.5t42.5 16.5t42.5 -16.5t16.5 -40.5t-16.5 -41.5t-41.5 -17.5z" />
<glyph unicode="@" horiz-adv-x="786" d="M320 107q22 0 62.5 50.5t83.5 127.5q25 48 25 63q-5 24 -29 45.5t-56 21.5q-22 0 -41 -17q-32 -30 -60.5 -102.5t-28.5 -124.5q0 -31 13 -47.5t31 -16.5zM402 -110q-159 0 -262.5 100.5t-99.5 258.5q2 162 118.5 278t274.5 114q147 -2 243 -93t92 -230 q-2 -111 -72 -188.5t-155 -77.5q-58 0 -82.5 24.5t-21.5 57.5q0 35 21 93h-5q-59 -89 -96.5 -130t-73.5 -41t-62.5 26t-26.5 63q0 58 43 134t96 124q65 60 116 60q24 0 39.5 -25.5t18.5 -61.5h4l34 101l69 -3l-62 -159l-37 -133q-31 -93 56 -93q68 0 121.5 66.5t55.5 163.5 q2 130 -87.5 216t-228.5 88q-149 2 -259 -109.5t-112 -265.5q-4 -149 93.5 -244.5t247.5 -95.5q84 0 154.5 39.5t108.5 99.5l10 -14q-42 -64 -114 -103.5t-159 -39.5z" />
<glyph unicode="A" horiz-adv-x="607" d="M189 257l-52 -100q-46 -86 -48 -105q-2 -22 29 -29q11 -2 28 -4l34 -4l2 -15h-223l3 15l22 5q40 6 62 32.5t90 146.5l188 360l-4 36q19 4 43.5 18t34.5 26h13l61 -522q8 -59 19.5 -77t41.5 -20l36 -5l1 -15h-275l3 15l38 4q31 2 39 20.5t2 61.5l-16 156h-172zM359 279 l-25 253h-4l-130 -253h159z" />
<glyph unicode="B" horiz-adv-x="580" d="M-8 15l43 6q42 5 44 18l105 549q1 6 -6.5 9t-38.5 8l-33 5l-1 15h242q112 0 161.5 -40.5t49.5 -98.5q0 -64 -53 -102.5t-149 -46.5l2 -3q85 -14 130.5 -56.5t45.5 -99.5q0 -87 -76.5 -132.5t-218.5 -45.5h-250zM300 348q76 0 116.5 42.5t40.5 100.5q0 55 -35.5 85 t-103.5 30h-37l-48 -254q19 -4 67 -4zM274 19q74 2 115.5 50.5t41.5 115.5q0 68 -45.5 106.5t-124.5 38.5h-32l-57 -294l58 -17h44z" />
<glyph unicode="C" horiz-adv-x="663" d="M364 -15q-144 0 -228.5 79t-84.5 205q0 150 107 260.5t266 110.5q100 0 168 -37l70 16l-33 -187l-16 1l-31 139q-56 48 -150 48q-125 0 -202 -109.5t-77 -258.5q0 -113 57 -180t158 -67q105 0 188 97l38 68l18 -1l-52 -162l-39 1q-69 -23 -157 -23z" />
<glyph unicode="D" horiz-adv-x="664" d="M239 17q146 2 229 101.5t83 253.5q0 104 -54 169.5t-163 65.5h-53l-108 -568zM-8 15l43 6q42 5 44 18l105 549q1 6 -6.5 9t-38.5 8l-33 5l-1 15l239 1q151 2 230.5 -71t79.5 -189q0 -153 -109.5 -259.5t-295.5 -106.5h-260z" />
<glyph unicode="E" horiz-adv-x="588" d="M-8 15l40 6q45 6 47 18l105 549q1 6 -6.5 9t-38.5 8l-32 5l-2 15h454l1 -192h-19l-6 38q-10 33 -16 48.5t-20 36t-32.5 29.5t-50.5 15.5t-78 6.5h-57l-53 -277l39 1q75 2 103 14t46 52l15 30l17 -1l-47 -213l-17 1l3 29q6 42 -18.5 53t-109.5 15l-34 1l-55 -290l93 -4 q57 0 98 10t69.5 32.5t44.5 43t37 56.5l19 37l19 -1l-64 -196h-497z" />
<glyph unicode="F" horiz-adv-x="562" d="M-8 15l46 6q39 4 41 18l105 549q0 7 -6 10t-36 7l-35 5l-2 15h463l-4 -192h-19l-7 38q-10 32 -16 48.5t-20 36.5t-33.5 29t-51.5 15.5t-77 6.5h-59l-54 -283l42 1q74 2 102.5 14t46.5 51l15 30l16 -1l-46 -212l-16 1l2 29q2 43 -21 53.5t-107 14.5l-37 1l-52 -269 q-1 -5 2 -8t13 -5.5t30 -3.5l49 -5l2 -15h-279z" />
<glyph unicode="G" horiz-adv-x="690" d="M349 -15q-139 0 -218.5 78t-79.5 204q0 150 105 261.5t268 111.5q98 0 168 -38l70 16l-33 -189h-15l-32 142q-54 48 -149 48q-124 0 -202 -109.5t-78 -257.5q0 -113 56 -180.5t154 -67.5q59 0 100 22l42 209q1 7 -8.5 11t-40.5 7l-42 5l-2 15h271l-4 -15l-39 -6 q-43 -6 -45 -18l-37 -189l54 2v-11q-52 -20 -127 -35.5t-136 -15.5z" />
<glyph unicode="H" horiz-adv-x="723" d="M-7 15l42 6q40 5 45 18l104 549q1 4 -1.5 6.5t-13 5.5t-30.5 5l-32 5l-1 15h264l-4 -15l-44 -6q-42 -5 -44 -18l-49 -258h305l50 260q1 4 0 6t-6 4t-14 3.5t-25 3.5l-35 5l-1 15h264l-4 -15l-41 -6q-42 -5 -44 -18l-105 -549q-2 -6 6 -9t37 -8h2l32 -5l1 -15h-264l3 15 l45 6q42 4 44 18l51 270h-306l-51 -272q-1 -4 0 -6t6 -4t14 -3.5t25 -3.5l35 -5l1 -15h-264z" />
<glyph unicode="I" horiz-adv-x="344" d="M-3 15l49 6q42 4 44 18l105 549q1 4 -2 7t-13 5.5t-30 4.5l-38 5l-2 15h273l-3 -15l-48 -6q-42 -5 -44 -18l-105 -549q-1 -7 7 -10t38 -7l38 -5l2 -15h-274z" />
<glyph unicode="J" horiz-adv-x="344" d="M-12 -121q-41 0 -65 17t-24 45q0 24 16 40t42 16q41 0 52.5 -35t-15.5 -64q38 -5 67.5 39t46.5 140l101 511q1 4 -2 7t-13 5.5t-30 4.5l-41 5l-2 15h276l-4 -15l-47 -6q-42 -5 -44 -18l-104 -525q-10 -67 -75.5 -124.5t-134.5 -57.5z" />
<glyph unicode="K" horiz-adv-x="662" d="M-8 15l46 6q39 4 41 18l105 549q0 7 -6 10t-36 7l-35 5l-2 15h272l-4 -15l-52 -6q-39 -4 -44 -18l-58 -307l186 158q133 115 141 143q4 17 -22 23q-8 1 -22 3l-37 4v15h248l-3 -14l-17 -2q-40 -3 -75.5 -26.5t-133.5 -105.5q-7 -6 -11.5 -9.5t-11.5 -9.5t-13 -11l-64 -56 l133 -301q20 -46 31 -57t39 -15l29 -3l2 -15h-259l3 15l30 4q28 2 32 21t-15 68l-97 224l-99 -83l-41 -212q-1 -7 7.5 -10.5t37.5 -6.5l42 -5l2 -15h-272z" />
<glyph unicode="L" horiz-adv-x="557" d="M-8 15l46 6q39 4 41 18l104 549q1 2 1 3.5t-1.5 3t-4 3t-7.5 2.5l-12.5 2.5t-17.5 2.5l-35 5l-2 15h281l-3 -15l-61 -6q-42 -4 -44 -18l-107 -564l77 -4q55 0 92.5 8.5t64 30t43 44.5t39.5 66l19 42h20l-64 -209h-472z" />
<glyph unicode="M" horiz-adv-x="812" d="M-16 15l30 4q41 2 55 18t24 68l108 484q-11 14 -44 17l-36 4l-2 15h193l75 -495l3 -1l283 496h187l-4 -15l-44 -6q-42 -5 -44 -18l-95 -498q-4 -41 3 -52.5t39 -15.5l33 -5l1 -15h-268l3 15l46 6q24 2 34.5 16.5t15.5 52.5l91 483h-3l-325 -567h-27l-88 552q-6 17 -8 21 l-104 -475q-8 -50 2.5 -66.5t55.5 -18.5l29 -4l2 -15h-224z" />
<glyph unicode="N" horiz-adv-x="673" d="M202 544h-3l-87 -439q-8 -49 3 -64.5t52 -21.5l27 -4l1 -15h-214l3 15l28 4q35 4 53 22t24 66l88 433q-6 27 -19.5 43.5t-45.5 21.5l-22 5l-2 15h180l256 -482h3l75 377q8 49 -3 65.5t-51 20.5l-27 4l-2 15h215l-3 -15l-28 -4q-36 -4 -53 -21t-25 -67l-104 -524h-21z" />
<glyph unicode="O" horiz-adv-x="719" d="M351 7q73 0 132.5 59t90 144.5t30.5 172.5q0 104 -53 170t-147 66q-75 0 -134.5 -59.5t-89 -145t-29.5 -172.5q0 -104 53.5 -169.5t146.5 -65.5zM357 -14q-135 0 -219 86.5t-84 213.5q0 141 97.5 247t248.5 106q133 0 217 -87t84 -214q0 -144 -98.5 -248t-245.5 -104z " />
<glyph unicode="P" horiz-adv-x="556" d="M318 307q72 0 114.5 53.5t42.5 130.5q0 54 -30 84.5t-86 30.5h-78l-53 -282q49 -17 90 -17zM-17 15l52 6q42 4 44 18l105 549q1 4 -2 7t-13 5.5t-30 4.5l-42 5l-2 15h272q98 0 153 -42.5t55 -108.5q0 -82 -69.5 -134t-174.5 -52q-50 0 -108 14l-51 -265q-1 -5 2 -8 t13 -5.5t30 -3.5l56 -5l1 -15h-294z" />
<glyph unicode="Q" horiz-adv-x="720" d="M351 7q73 0 132.5 59t90 144.5t30.5 172.5q0 104 -53 170t-147 66q-75 0 -134.5 -59.5t-89 -145t-29.5 -172.5q0 -104 53.5 -169.5t146.5 -65.5zM563 -182q-117 0 -189 41t-97 137q-102 24 -162.5 104t-60.5 186q0 141 97.5 247t248.5 106q133 0 217 -87.5t84 -213.5 q0 -134 -88 -235t-222 -115q27 -86 88.5 -118.5t170.5 -30.5v-14q-27 -7 -87 -7z" />
<glyph unicode="R" horiz-adv-x="621" d="M323 324q72 2 115.5 45.5t43.5 118.5q0 55 -34.5 86.5t-98.5 31.5h-68l-49 -261q39 -21 91 -21zM-17 15l52 6q43 6 44 18l104 549q1 4 0 6t-6 4t-14 3.5t-25 3.5l-42 5l-1 15h275q100 0 156 -41t56 -107q0 -70 -57 -117.5t-143 -55.5l100 -206q19 -43 39.5 -60.5 t51.5 -19.5l17 -3l2 -15h-171l-133 305q-4 2 -28.5 8.5t-31.5 10.5l-56 -287q-1 -5 12.5 -9.5t32.5 -7.5l45 -5l2 -15h-284z" />
<glyph unicode="S" horiz-adv-x="496" d="M216 -13q-118 0 -207 48l23 156h16l18 -83q34 -101 151 -101q63 0 105 41t42 99q0 45 -31 78t-93 66q-70 39 -105.5 80t-35.5 100q0 66 57 117t142 51q70 0 155 -31l42 10l-31 -170l-15 1l-31 125q-53 44 -118 44q-50 0 -86 -30.5t-36 -77.5q0 -46 27.5 -76.5t94.5 -65.5 q73 -40 111 -83.5t38 -103.5q0 -76 -66 -135t-167 -59z" />
<glyph unicode="T" horiz-adv-x="646" d="M139 15l58 6q39 4 44 18l107 568h-38q-73 -3 -117.5 -35.5t-79.5 -90.5l-18 -41h-19l52 185h543l-23 -185h-17l-5 38q-10 67 -42.5 97t-106.5 32h-34l-109 -570q-1 -4 2 -7t13 -5.5t30 -4.5l47 -5l2 -15h-293z" />
<glyph unicode="U" horiz-adv-x="687" d="M345 -15q-108 0 -175.5 43t-67.5 127q0 42 10 81l67 352q1 4 -2 7t-13 5.5t-30 4.5l-42 5l-2 15h282l-4 -15l-52 -6q-39 -4 -44 -18l-65 -340q-8 -43 -8 -74q0 -150 175 -150q76 0 121 46t65 148l61 304q8 49 -2.5 64.5t-51.5 21.5l-27 4l-2 15h215l-4 -15l-27 -4 q-35 -4 -52.5 -21.5t-25.5 -66.5l-62 -309q-21 -113 -78 -168.5t-159 -55.5z" />
<glyph unicode="V" horiz-adv-x="617" d="M163 510q-10 65 -17.5 78.5t-40.5 17.5l-35 4l-2 15h273l-3 -15l-42 -3q-35 -2 -41.5 -14t-0.5 -54l69 -427h3l195 369q42 77 44 94q1 19 -26 26q-12 3 -31 5l-34 4l-2 15h224l-4 -15l-22 -5q-40 -6 -63.5 -33t-89.5 -146l-235 -437h-30z" />
<glyph unicode="W" horiz-adv-x="952" d="M164 510q-10 62 -19 77t-42 19l-36 4l-1 15h273l-3 -15l-38 -3q-33 -2 -41 -15t-2 -53l65 -435h3l199 362l-8 44q-10 61 -19.5 76.5t-42.5 19.5l-35 4l-2 15h272l-4 -15l-38 -3q-36 -2 -43.5 -16t0.5 -54l65 -432l3 -1l190 379q18 32 26 49t12.5 32.5t-2 22.5t-19 12 t-36.5 7l-27 4l-1 15h222l-4 -15l-22 -5q-37 -6 -61 -30t-68 -105l-249 -481h-33l-68 439h-3l-246 -439h-33z" />
<glyph unicode="X" horiz-adv-x="643" d="M-40 15l26 3q43 6 70 26t92 93l150 170l-95 193q-37 76 -48 88q-13 14 -35 17l-31 5l-3 15h260l-4 -15l-31 -2q-33 -2 -35.5 -20.5t24.5 -78.5l66 -143h2l111 129q20 22 30.5 34.5t19.5 26t9.5 20.5t-4.5 14t-17 10t-33 6l-24 4l-2 15h234l-4 -15l-24 -3 q-43 -6 -70.5 -26t-92.5 -93l-123 -141l8 -19q9 -19 24.5 -50t30.5 -62q25 -49 63 -131q18 -38 30 -50.5t35 -14.5l30 -5l2 -15h-257l3 15l32 2q31 2 37 16t-9 43l-98 211h-3l-135 -157q-31 -34 -43 -49.5t-16 -30.5t9 -21t44 -10l25 -4l2 -15h-235z" />
<glyph unicode="Y" horiz-adv-x="615" d="M126 15l58 6q42 4 44 18l46 237l-101 257q-16 40 -29.5 54t-41.5 18l-32 5l-1 15h272l-4 -15l-28 -2q-39 -4 -45 -21.5t12 -60.5l81 -218h3l127 179q53 75 56 90q3 16 -23 23q-9 2 -26 5l-29 5l-2 15h220l-4 -15l-26 -4q-31 -4 -62 -29.5t-78 -92.5l-145 -201l-47 -246 q-1 -4 2 -7t13 -5.5t30 -4.5l48 -5l1 -15h-292z" />
<glyph unicode="Z" horiz-adv-x="571" d="M-7 14l500 590l-1 3h-110q-64 0 -109.5 -10t-73 -30.5t-42.5 -41t-29 -52.5l-13 -32h-16l33 184h477l-3 -15l-499 -588v-3h123q66 0 111 8.5t74 29.5t45.5 43.5t35.5 62.5l15 35h20l-51 -198h-490z" />
<glyph unicode="[" horiz-adv-x="325" d="M126 633h247l-1 -20h-224l-127 -832h224l-2 -20h-247z" />
<glyph unicode="\" horiz-adv-x="246" d="M-2 641h22l211 -877h-21z" />
<glyph unicode="]" horiz-adv-x="325" d="M-55 -219h224l127 832h-224l1 20h247l-130 -872h-247z" />
<glyph unicode="^" d="M258 683h32l80 -194h-12l-93 116h-3l-147 -116h-10z" />
<glyph unicode="_" horiz-adv-x="453" d="M-28 1h424l3 -37h-430z" />
<glyph unicode="`" d="M131 684h90l61 -187h-12z" />
<glyph unicode="a" horiz-adv-x="453" d="M140 47q42 0 145 195q7 13 15.5 41t8.5 37q-5 30 -30 52t-57 22q-24 0 -44 -20q-30 -30 -57 -110.5t-27 -140.5q0 -76 46 -76zM310 -13q-17 0 -49.5 13t-32.5 23q0 28 48 164h-4q-8 -14 -24 -39q-29 -48 -43 -69.5t-34 -47t-36.5 -34.5t-34.5 -9q-37 0 -62 28.5t-25 75.5 q0 75 40 151.5t95 131.5q65 67 127 67q24 0 34 -20t12 -71h4l34 95l75 -3l-72 -200l-57 -201l46 -7l70 91l9 -7q-31 -64 -63.5 -98t-56.5 -34z" />
<glyph unicode="b" horiz-adv-x="424" d="M175 7q20 0 47 25q41 41 72 123t31 148q0 84 -50 84q-30 0 -65 -52t-85 -161q-10 -23 -18 -55.5t-8 -44.5q8 -30 29 -48.5t47 -18.5zM141 -16q-50 0 -89.5 27t-24.5 73l137 518q6 21 -5 23l-75 10l3 12l176 26l-31 -115q-80 -267 -105 -337q-2 -6 0.5 -6.5t4.5 4.5 q55 120 99.5 173t85.5 53q38 0 63 -34t25 -88q0 -62 -31 -138.5t-91 -134.5q-29 -30 -68.5 -48t-73.5 -18z" />
<glyph unicode="c" horiz-adv-x="354" d="M142 -13q-55 0 -91 42t-36 102q0 111 78 213t174 102q40 0 71 -22t31 -54q0 -23 -15.5 -39.5t-35.5 -16.5q-19 0 -33 11.5t-14 28.5q0 27 27 47q-28 23 -53 23q-24 0 -55 -31q-36 -37 -63.5 -109.5t-27.5 -137.5q0 -105 77 -105q33 0 59.5 19.5t66.5 70.5l9 -7 q-41 -64 -81 -100.5t-88 -36.5z" />
<glyph unicode="d" horiz-adv-x="453" d="M140 47q44 0 145 195q7 13 15.5 41t8.5 37q-5 29 -30.5 51t-56.5 22q-24 0 -44 -20q-30 -30 -57 -110t-27 -140q0 -76 46 -76zM310 -13q-17 0 -49.5 13t-32.5 23q0 33 47 164h-4q-5 -9 -15 -25q-31 -52 -46 -75.5t-36 -51t-38 -37.5t-36 -10q-37 0 -62 28.5t-25 75.5 q0 75 40 151t95 131q69 71 125 71q12 0 21 -8t14.5 -23.5t8 -29t4.5 -33.5h4l73 251q6 21 -6 23l-88 10l3 12l191 26l-123 -392l-70 -239l46 -7l70 90l9 -7q-31 -63 -63.5 -97t-56.5 -34z" />
<glyph unicode="e" horiz-adv-x="362" d="M112 227q101 32 140 64t39 81q0 21 -14.5 35.5t-35.5 14.5q-24 0 -51 -25q-50 -50 -80 -169zM142 -13q-55 0 -91 42t-36 102q0 72 35 145.5t92.5 121.5t117.5 48q48 0 77 -22.5t29 -59.5q0 -47 -58 -79t-200 -72q-9 -38 -9 -67q0 -105 82 -105q32 0 60 20t67 70l9 -7 q-87 -137 -175 -137z" />
<glyph unicode="f" horiz-adv-x="265" d="M-82 -200q-33 0 -55.5 16.5t-22.5 42.5q0 19 14 34.5t35 15.5q27 0 42 -25.5t3 -54.5q10 0 15 1q4 0 11.5 0.5t9.5 0.5q23 6 42 62.5t50 205.5l56 294l-84 2l11 33l83 7q29 123 89 183q50 52 120 52q39 0 63 -18t24 -45q0 -21 -15.5 -36t-35.5 -15q-31 0 -41.5 27t7.5 55 q-13 0 -19 1q-22 2 -28 2q-57 -18 -89 -208h105l-9 -39h-104l-58 -266q-24 -110 -49.5 -180t-62.5 -107q-38 -41 -107 -41z" />
<glyph unicode="g" horiz-adv-x="394" d="M163 151q35 0 63 30q28 28 43.5 77.5t15.5 91.5q0 33 -16.5 53.5t-40.5 20.5q-21 0 -48 -23q-29 -31 -46.5 -80t-17.5 -89q2 -48 17 -67q14 -14 30 -14zM150 -224q53 0 91 27.5t38 64.5q0 33 -33 54.5t-91 41.5q-15 6 -40 14t-35 12q-40 -10 -66 -36.5t-26 -63.5 q0 -48 45.5 -81t116.5 -33zM106 -244q-86 0 -140 32t-54 87q0 40 43.5 72.5t104.5 50.5v3q-60 29 -60 72q0 28 28.5 51.5t70.5 35.5v3q-53 41 -53 111q0 68 53.5 119.5t120.5 51.5q51 0 93 -29l125 16l-14 -64l-115 30v-5q43 -48 43 -98q0 -62 -53.5 -111t-114.5 -49 q-40 0 -68 16q-22 -3 -36 -17.5t-14 -32.5q0 -17 19.5 -28.5t77.5 -31.5l26 -9q76 -28 115.5 -58t39.5 -75q0 -58 -68 -100.5t-170 -42.5z" />
<glyph unicode="h" horiz-adv-x="460" d="M303 -13q-16 0 -45.5 13t-29.5 23q0 18 66 191q7 21 20 54.5t20 54t7 29.5q0 14 -14.5 26t-31.5 12q-24 0 -73 -74.5t-113 -210.5l-35 -109l-81 5q27 96 52 159q36 112 74 266q21 78 45 176q6 21 -5 23l-75 10l3 12l175 26l-30 -115q-14 -48 -43.5 -150.5t-47.5 -160.5 t-31 -90l7 -1q100 200 152 252q36 36 75 36q28 0 51 -17.5t23 -41.5q0 -42 -48 -168q-9 -26 -25 -68t-27.5 -72.5t-12.5 -34.5l45 -7l70 90l9 -7q-29 -61 -65 -96t-61 -35z" />
<glyph unicode="i" horiz-adv-x="249" d="M231 530q-23 0 -37 14.5t-14 36.5q0 29 15 48t36 19q24 0 38 -14.5t14 -36.5q-1 -29 -16 -48t-36 -19zM103 -13q-17 0 -49 12t-32 21q0 8 52 159.5t74 211.5l-54 5l-67 -96l-10 8q32 65 68 101.5t67 36.5q22 0 44 -18t22 -38q0 -23 -118 -347l51 -8l70 90l9 -7 q-28 -60 -65 -95.5t-62 -35.5z" />
<glyph unicode="j" horiz-adv-x="233" d="M227 530q-23 0 -37 14.5t-14 36.5q0 29 15 47.5t36 18.5q24 0 38.5 -14.5t13.5 -36.5q-1 -29 -16 -47.5t-36 -18.5zM-104 -253q-25 0 -45.5 16t-20.5 40q0 18 13.5 32t33.5 14q27 0 41 -22t0 -52l39 13q17 23 32.5 68t42.5 143l111 393l-50 4l-71 -96l-9 8 q30 65 66.5 101.5t68.5 36.5q22 0 44.5 -18t22.5 -38q0 -19 -40 -153.5t-64 -194.5q-64 -190 -126 -252q-43 -43 -89 -43z" />
<glyph unicode="k" horiz-adv-x="421" d="M280 -13q-14 0 -29.5 7.5t-22.5 16.5q-6 97 -22 161.5t-38 64.5q-9 0 -17 -3t-12.5 -6.5t-4.5 -5.5l-60 -226l-81 5q24 83 52 159q36 112 74 266q21 78 45 176q6 21 -5 23l-75 10l3 12l175 26l-30 -115q-24 -80 -54 -180.5t-39 -130.5q5 2 25 2q50 20 107 50t63 42v4 q-37 13 -37 52q0 19 16 34.5t36 15.5q22 0 38 -15.5t16 -38.5q0 -34 -26.5 -59t-110.5 -59l-60 -24q35 -5 60.5 -70t35.5 -140l27 -2l66 97l8 -6q-25 -63 -58 -103t-65 -40z" />
<glyph unicode="l" horiz-adv-x="231" d="M82 -13q-16 0 -47 13t-29 20l157 582q6 21 -5 23l-75 10l3 12l175 26l-178 -631l43 -7l69 90l10 -7q-31 -63 -64.5 -97t-58.5 -34z" />
<glyph unicode="m" horiz-adv-x="694" d="M547 -13q-17 0 -48.5 13t-31.5 23q0 15 67 191q7 21 20 54.5t20 54t7 29.5q0 15 -15 27t-32 12q-41 0 -176 -286l-34 -109l-82 5l50 157q10 30 27.5 77.5t27.5 76.5t10 38q0 17 -12 29t-29 12q-43 0 -180 -286l-33 -109l-81 5l51 160l62 232l-43 4l-68 -97l-9 8 q65 139 125 139q17 0 43 -18.5t26 -37.5q0 -42 -71 -233l7 -2q108 216 145 253q36 36 75 36q27 0 46 -20t19 -48q0 -37 -70 -219l6 -2q34 67 44.5 88t34 65.5t37.5 65.5t27 34q36 36 75 36q27 0 50.5 -18t23.5 -41q0 -43 -48 -169q-7 -20 -18.5 -51t-21 -55.5t-18 -46 t-8.5 -22.5l46 -7l70 91l9 -7q-31 -63 -64 -97.5t-58 -34.5z" />
<glyph unicode="n" horiz-adv-x="483" d="M335 -13q-17 0 -48 13t-31 23q0 18 66 191q7 21 20 54.5t20 54t7 29.5q0 15 -14.5 27t-31.5 12q-23 0 -72.5 -74.5t-114.5 -211.5l-33 -109l-81 5l51 160l62 230l-43 5l-68 -96l-9 8q30 65 64.5 102t64.5 37q16 0 40.5 -18.5t24.5 -37.5q0 -20 -21.5 -92t-47.5 -141l5 -2 q99 200 152 253q36 36 75 36q27 0 50.5 -18t23.5 -41q0 -43 -48 -169q-7 -20 -18.5 -51t-21 -55.5t-18 -46t-8.5 -22.5l46 -7l70 91l9 -7q-31 -63 -64 -97.5t-58 -34.5z" />
<glyph unicode="o" horiz-adv-x="410" d="M155 6q43 0 80 52t57 124q17 59 17 130q0 52 -14.5 82.5t-41.5 30.5q-37 0 -76 -59.5t-62 -131.5q-18 -64 -18 -118q0 -47 15.5 -78.5t42.5 -31.5zM163 -12q-63 0 -102 53t-39 132q0 94 69.5 182.5t148.5 88.5q65 0 106.5 -53t41.5 -131q0 -97 -71.5 -184.5t-153.5 -87.5 z" />
<glyph unicode="p" horiz-adv-x="445" d="M194 5q23 0 53 30q37 37 69 120.5t32 141.5q0 91 -50 91q-38 0 -77.5 -69t-88.5 -196q-10 -25 -10 -55q7 -24 28.5 -43.5t43.5 -19.5zM-103 -236l31 4q21 2 28.5 5t9.5 12l169 607l-43 4l-68 -96l-9 8q31 66 63.5 102t61.5 36q17 0 42.5 -19.5t25.5 -36.5q0 -30 -31 -109 h7q43 87 79 125t80 38q37 0 61 -39.5t24 -98.5q0 -119 -78 -219t-168 -100q-45 0 -69 43h-2l-67 -247q-2 -4 2 -7t14.5 -5.5t28.5 -2.5l42 -4l1 -15h-237z" />
<glyph unicode="q" horiz-adv-x="435" d="M140 47q44 0 145 195q7 13 15.5 41t8.5 37q-5 29 -30.5 51t-56.5 22q-24 0 -44 -20q-30 -30 -57 -110t-27 -140q0 -76 46 -76zM69 -236l40 4q39 1 44 19l79 260l45 141h-4q-79 -132 -109 -164q-33 -36 -64 -36q-37 0 -62 28.5t-25 75.5q0 75 40 151t95 131q69 71 125 71 q12 0 21 -8t14.5 -23.5t8 -29t4.5 -33.5h4l31 87l76 -3l-70 -192l-131 -458q-2 -8 7.5 -11t32.5 -6l29 -4l3 -15h-237z" />
<glyph unicode="r" horiz-adv-x="386" d="M22 1l51 160l62 232l-43 4l-68 -97l-9 8q65 139 125 139q17 0 43 -18.5t26 -37.5q0 -46 -63 -209h7q7 15 23.5 48.5t23 46t19 37.5t19.5 36t16.5 27t17 25.5t15.5 16.5q29 29 61 28q29 -2 46.5 -22t15.5 -45t-18.5 -41.5t-35.5 -14.5q-29 2 -38.5 26t13.5 50l-10 4 q-9 4 -12 4q-22 -13 -54.5 -66t-109.5 -199l-41 -147z" />
<glyph unicode="s" horiz-adv-x="321" d="M116 -13q-52 0 -90 22t-38 62q0 21 14.5 36t36.5 15q17 0 28 -13t11 -29q0 -12 -7 -26t-16 -20q13 -9 39.5 -18.5t43.5 -9.5q30 2 50.5 29.5t20.5 52.5q0 12 -3.5 23t-13 23t-14 18t-20.5 21t-20 19q-40 37 -61 66.5t-19 63.5q2 54 47.5 88.5t100.5 34.5q114 0 114 -78 q0 -23 -14.5 -36.5t-35.5 -13.5q-17 0 -28.5 12.5t-11.5 30.5q0 26 24 43q-39 21 -64 22q-30 -2 -48 -26.5t-18 -49.5q0 -16 9.5 -33.5t19.5 -28.5t31 -32l3.5 -3.5l3.5 -3.5l12 -12q12 -11 13.5 -13t11.5 -13t12.5 -15t10 -13.5t10 -16t6.5 -16t5.5 -18t1.5 -17.5 q-2 -54 -52 -90.5t-106 -36.5z" />
<glyph unicode="t" horiz-adv-x="283" d="M110 -13q-10 0 -33 5t-42 12.5t-18 13.5l101 374l-78 3l11 33l79 11l35 127h80l-35 -133h95l1 -39h-107l-105 -352l61 -7l69 90l9 -7q-29 -62 -63.5 -96.5t-59.5 -34.5z" />
<glyph unicode="u" horiz-adv-x="483" d="M339 -14q-16 0 -40 18.5t-24 37.5q0 21 21.5 95t46.5 139l-5 1q-100 -202 -151 -253q-36 -36 -75 -36q-27 0 -50.5 18t-23.5 41q0 43 48 169q57 160 65 176l-46 5l-68 -97l-10 7q31 65 64.5 102t57.5 37q17 0 48 -13t31 -23q0 -7 -9.5 -35t-29 -81t-27.5 -75 q-47 -123 -47 -139q0 -14 14.5 -26t31.5 -12q23 0 72.5 74.5t114.5 210.5l33 110l80 -5l-50 -160l-30 -112q-33 -115 -33 -119l43 -6l69 90l9 -7q-30 -63 -65 -97.5t-65 -34.5z" />
<glyph unicode="v" horiz-adv-x="410" d="M131 -13q-34 0 -63.5 24.5t-29.5 55.5q0 15 9.5 43t27.5 66.5t32.5 67.5t37 72.5t28.5 55.5l-94 17l-59 -82l-8 7q63 135 116 135q21 0 60 -7.5t39 -13.5q0 -7 -57 -130t-57 -168q0 -38 25 -59.5t58 -21.5q21 0 61.5 55.5t73 127.5t32.5 114q-22 -4 -44.5 11.5 t-22.5 36.5t15.5 37t36.5 16q25 0 41.5 -17.5t16.5 -45.5q0 -52 -46 -147t-102 -157q-73 -93 -127 -93z" />
<glyph unicode="w" horiz-adv-x="589" d="M111 -13q-29 0 -52.5 24t-23.5 56q0 30 22.5 82t66.5 133.5t48 89.5l-93 17l-59 -82l-8 7q63 135 116 135q21 0 60 -7.5t39 -13.5q0 -10 -30 -69.5t-60 -129t-30 -102.5q0 -35 20 -50t42 -15q29 0 91 92t106 180l-5 3l-12.5 7.5t-15 11.5t-12.5 17t-5 21q0 23 14.5 37 t37.5 14q21 0 36 -15.5t15 -39.5q0 -27 -29.5 -64.5t-41.5 -68.5q-24 -66 -24 -107q0 -46 23 -67t51 -21q26 0 62 49.5t61.5 117.5t25.5 117q-21 -4 -42 11.5t-21 36.5t14.5 37t35.5 16q24 0 40 -17t16 -45q0 -53 -40 -150.5t-91 -158.5q-60 -89 -108 -89q-28 0 -48 26 t-20 55q0 42 46 163q-73 -124 -123.5 -184t-94.5 -60z" />
<glyph unicode="x" horiz-adv-x="443" d="M48 -13q-31 0 -51.5 16.5t-19.5 43.5q0 24 13.5 39t34.5 15q25 0 35.5 -21t-3.5 -44q0 -2 9.5 -7.5t12.5 -5.5q14 2 51.5 60t59.5 110q-7 61 -25 130t-32 69h-37l-44 -73l-10 7q51 121 115 121q36 0 54.5 -37t37.5 -126h2q41 96 66.5 129.5t60.5 33.5q30 0 50.5 -16 t19.5 -42q0 -23 -14 -38.5t-33 -15.5q-24 0 -36.5 21t0.5 40q0 2 -9 5t-13 3q-11 -2 -41 -51.5t-46 -90.5q32 -219 60 -219h36l45 73l10 -9q-53 -120 -116 -120q-37 0 -57.5 44t-37.5 137h-3q-47 -107 -77.5 -144t-67.5 -37z" />
<glyph unicode="y" horiz-adv-x="423" d="M-46 -204q-39 0 -60.5 16.5t-21.5 46.5q0 21 15 34.5t35 13.5q28 0 43 -23t3 -52l31 -8q32 8 88.5 52t91.5 84q0 168 -22.5 302t-53.5 134l-20 1l-63 -97l-10 8q35 74 60.5 106t62.5 32q66 0 89.5 -81t27.5 -313l4 -1q39 65 79 165.5t42 148.5q-27 -14 -53 -0.5t-26 35.5 q-2 21 11.5 36.5t36.5 15.5q25 0 42 -18t17 -52q0 -87 -70 -222.5t-140 -201.5q-5 -4 -28 -26.5t-37.5 -36t-40.5 -34.5t-45.5 -33.5t-43.5 -22t-44 -9.5z" />
<glyph unicode="z" horiz-adv-x="373" d="M236 -21q-37 0 -70.5 20.5t-62 48t-41.5 33.5h-8l-25 -93q-19 2 -34.5 15t-15.5 28q0 36 52 59l260 245q-29 -6 -60 9.5t-62 42t-37 30.5q-2 1 -10 -6.5t-15 -15.5t-5 -8q37 -11 37 -43q0 -19 -12.5 -32t-32.5 -13t-31.5 13t-11.5 32q0 36 43 70t87 34q39 -2 60.5 -21.5 t33 -43.5t21.5 -29l7 1l25 92q19 -2 34 -15t15 -30q-1 -34 -53 -57l-260 -245q41 7 83.5 -9.5t85.5 -47t45 -31.5q1 -1 7 6t10.5 14.5t2.5 7.5q-17 5 -28 19.5t-11 29.5q0 19 13 31.5t34 12.5q20 0 31 -13.5t11 -34.5q0 -35 -37 -69.5t-75 -36.5z" />
<glyph unicode="{" horiz-adv-x="312" d="M245 -248q-87 10 -138 54.5t-41 109.5q6 45 37.5 110t36.5 95q6 39 -26.5 59t-101.5 31l-5 12l7 12q142 0 152 69q5 32 -5.5 99.5t-3.5 111.5q10 64 72.5 99.5t150.5 33.5v-15q-74 -3 -109 -25.5t-42 -67.5q-5 -33 5 -100.5t4 -110.5q-8 -46 -56 -75t-112 -31v-5l-1 -2 q63 -15 101 -49t32 -82q-7 -41 -38.5 -107t-36.5 -98q-8 -43 20.5 -71.5t99.5 -43.5z" />
<glyph unicode="|" horiz-adv-x="190" d="M85 648h20v-877h-20v877z" />
<glyph unicode="}" horiz-adv-x="312" d="M-57 -233q73 3 108.5 25.5t43.5 68.5q5 32 -16.5 101.5t-14.5 110.5q6 47 54 75t113 32q0 2 1 4v3q-62 15 -101 50t-31 81q6 42 48.5 107t47.5 97q8 43 -20.5 70.5t-99.5 42.5l3 14q89 -12 138.5 -55t39.5 -108q-7 -44 -48.5 -108t-46.5 -96q-5 -40 30 -60.5t97 -30.5 l5 -11l-6 -11q-70 0 -108 -15t-44 -55q-5 -32 15.5 -101t14.5 -111q-10 -65 -71.5 -100.5t-151.5 -33.5v14z" />
<glyph unicode="~" horiz-adv-x="369" d="M250 156q-33 0 -87.5 32.5t-72.5 32.5q-20 0 -31 -10.5t-22 -46.5h-13q15 61 34.5 86t56.5 25q33 0 88 -32.5t72 -32.5q20 0 31.5 10.5t22.5 46.5h14q-15 -60 -35.5 -85.5t-57.5 -25.5z" />
<glyph unicode="&#xa1;" horiz-adv-x="260" d="M197 518q-26 0 -42.5 17t-16.5 41t16.5 41.5t41.5 17.5q26 0 43.5 -17.5t17.5 -41.5t-17 -41t-43 -17zM88 -19q-33 3 -41 16.5t-1 36.5l121 398q1 2 4 3t5 -0.5t2 -3.5l-32 -406q-3 -22 -14 -34t-41 -10h-3z" />
<glyph unicode="&#xa2;" horiz-adv-x="352" d="M110 -9q-42 12 -68.5 50.5t-26.5 88.5q0 112 78 213.5t174 101.5q18 0 30 -4l71 173h19l-74 -178q56 -21 56 -67q0 -23 -15 -39t-36 -16q-31 0 -45 26l-122 -296q12 -3 25 -3q33 0 59.5 19.5t66.5 70.5l9 -8q-86 -136 -169 -136q-11 0 -14 1l-61 -148h-19zM284 411 q-15 12 -39 12q-21 0 -55 -30q-36 -37 -63.5 -109.5t-27.5 -137.5q0 -72 36 -94z" />
<glyph unicode="&#xa3;" horiz-adv-x="516" d="M136 61q-2 1 -11 6.5t-11.5 7l-10 6t-10.5 5.5t-9.5 4.5t-10.5 4.5t-9.5 2.5t-10.5 2t-10 0.5q-24 0 -40 -15.5t-17 -37.5q-1 -19 13 -32.5t35 -13.5q55 0 102 60zM67 284l4 19h105q-2 38 -1 58q4 109 75.5 189.5t180.5 80.5q55 0 85 -21t28 -55q-1 -22 -16 -37.5 t-38 -15.5q-35 0 -44.5 31.5t9.5 56.5q-19 19 -54 19q-44 0 -79 -34.5t-47 -104.5q-4 -22 -7.5 -80.5t-6.5 -86.5h129l1 -19h-132q-1 -6 -3.5 -25t-4.5 -30q-12 -64 -57 -130q11 -3 35.5 -11t37.5 -12t32 -9.5t34 -7.5t28 -2q43 0 66 22t43 82l11 -3q-17 -74 -58 -122 t-99 -48q-33 0 -67 11t-52 21t-51 30q-60 -63 -121 -63q-28 0 -46 17t-16 42q1 34 26.5 56.5t72.5 22.5q32 0 94 -16q15 38 16 69q3 36 -3 106h-110z" />
<glyph unicode="&#xa4;" horiz-adv-x="496" d="M286 -14q-92 0 -148 69t-65 165h-70l3 19h65q0 3 0.5 8.5t0.5 7.5q0 52 10 93h-55l3 19h57q34 116 124 190.5t187 74.5q65 0 104 -23.5t39 -57.5q0 -22 -14.5 -38t-37.5 -16q-32 0 -43 33t3 57q-21 24 -60 24q-80 0 -136.5 -65.5t-78.5 -178.5h199l3 -19h-205 q-8 -46 -8 -85q0 -16 1 -24h186l3 -19h-187q9 -83 53.5 -132t116.5 -49q68 0 136 63l8 -11q-39 -50 -90.5 -77.5t-103.5 -27.5z" />
<glyph unicode="&#xa5;" horiz-adv-x="607" d="M93 288l-1 20h176l-94 235q-12 33 -26.5 47t-41.5 16l-28 4l-2 15h269l-3 -15l-29 -2q-39 -3 -44.5 -22.5t15.5 -67.5l73 -194h2l124 171q34 46 43 68t-0.5 31t-41.5 13l-21 3l-2 15h207l-3 -15l-23 -3q-32 -4 -57 -23.5t-74 -85.5l-138 -190h172v-10q0 -6 -1 -10h-179 l-21 -107h181l2 -19h-187l-23 -125q-1 -4 2 -7t13 -5.5t30 -4.5l48 -5l2 -15h-292l3 15l58 6q42 4 44 18l24 123h-178l4 19h177q2 0 21 107h-180z" />
<glyph unicode="&#xa7;" horiz-adv-x="390" d="M275 154q52 30 52 80q0 27 -18 50.5t-54 53.5q-13 10 -33.5 26.5t-32.5 26t-25.5 22.5t-21.5 25q-53 -29 -53 -79q0 -27 18 -50.5t57 -53.5q91 -71 111 -101zM136 -50q-50 0 -87 20t-37 52q0 22 13.5 36.5t34.5 14.5q29 0 38 -27.5t-4 -53.5q16 -23 58 -23q36 0 59 25 t23 53q0 32 -25.5 61.5t-75.5 68.5q-49 36 -77 71t-28 76q0 43 30 76t77 49q-15 26 -15 59q0 53 45 92t113 39q46 0 83 -21t37 -53q0 -20 -14.5 -33.5t-35.5 -13.5q-30 0 -39 28.5t5 53.5q-15 21 -49 21q-37 0 -60 -24t-23 -51q0 -33 26 -62.5t77 -68.5q33 -26 51.5 -43 t36 -45.5t17.5 -56.5q0 -44 -31 -78t-78 -49q16 -28 16 -61q0 -54 -47.5 -93t-113.5 -39z" />
<glyph unicode="&#xa8;" d="M163 520q-25 0 -39.5 17.5t-14.5 37.5q0 21 14.5 39.5t39.5 18.5t39.5 -18.5t14.5 -39.5q0 -20 -14.5 -37.5t-39.5 -17.5zM349 520q-25 0 -39.5 17.5t-14.5 37.5q0 21 14.5 39.5t39.5 18.5t39.5 -18.5t14.5 -39.5q0 -20 -14.5 -37.5t-39.5 -17.5z" />
<glyph unicode="&#xa9;" horiz-adv-x="713" d="M375 118q-93 0 -149 53t-56 138t58 140t150 55q54 0 96 -20l39 14l2 -121h-11l-46 90q-27 22 -83 22q-65 0 -103.5 -49t-38.5 -122q0 -81 42 -133t106 -52q39 0 64 17t49 53l20 41h11l-19 -105l-23 -2q-44 -19 -108 -19zM365 2q128 0 218 91t90 220t-90 220t-218 91 q-129 0 -219 -91t-90 -220t90 -220t219 -91zM365 -14q-136 0 -231.5 95.5t-95.5 231.5q0 135 96 231.5t231 96.5t231 -96.5t96 -231.5q0 -136 -95.5 -231.5t-231.5 -95.5z" />
<glyph unicode="&#xaa;" horiz-adv-x="352" d="M166 334q15 0 45.5 41.5t63.5 105.5q18 39 18 58q-4 22 -23 39t-43 17q-21 0 -34 -15q-24 -24 -43.5 -81.5t-19.5 -105.5q0 -28 10 -43.5t26 -15.5zM135 288q-28 0 -47 22.5t-19 59.5q0 56 30 113.5t72 99.5q51 51 97 51q18 0 25.5 -15.5t9.5 -54.5h3l26 74l56 -2 l-54 -154l-43 -153l35 -5l56 74l5 -5q-26 -50 -51.5 -77.5t-43.5 -27.5q-12 0 -35.5 11.5t-23.5 19.5q0 15 40 130h-3q-67 -113 -91 -138q-23 -22 -44 -23z" />
<glyph unicode="&#xab;" horiz-adv-x="452" d="M18 215l2 19l247 153l4 -10l-164 -161l105 -147l-7 -11zM208 215l2 19l249 164l4 -11l-170 -171l107 -157l-7 -11z" />
<glyph unicode="&#xad;" horiz-adv-x="294" d="M33 256h244l-7 -44h-247z" />
<glyph unicode="&#xae;" horiz-adv-x="713" d="M356 320q82 2 82 81q0 83 -102 79l-26 -1v-151q26 -8 46 -8zM198 142l30 4q24 2 24 11v316q0 6 -28 9l-25 4l-2 12h158q145 0 145 -97q0 -34 -24.5 -60t-65.5 -34l78 -118q18 -26 29.5 -34.5t30.5 -10.5l15 -2l2 -12h-109l-9 17l-97 157q-5 2 -20 4.5t-20 3.5v-157 q0 -3 28 -10l27 -3l1 -12h-170zM365 2q128 0 218 91t90 220t-90 220t-218 91q-129 0 -219 -91t-90 -220t90 -220t219 -91zM365 -14q-136 0 -231.5 95.5t-95.5 231.5q0 135 96 231.5t231 96.5t231 -96.5t96 -231.5q0 -136 -95.5 -231.5t-231.5 -95.5z" />
<glyph unicode="&#xaf;" horiz-adv-x="378" d="M117 527l2 4q3 10 4 11q4 8 5 15h248l-8 -30h-251z" />
<glyph unicode="&#xb0;" horiz-adv-x="321" d="M212 381q52 0 84.5 36t32.5 88q1 49 -30.5 82t-82.5 34q-52 0 -84.5 -36.5t-32.5 -87.5q-1 -51 30.5 -83.5t82.5 -32.5zM211 360q-60 0 -98.5 39t-38.5 97q0 61 41 104t103 43q59 0 97.5 -39t38.5 -96q0 -61 -40.5 -104.5t-102.5 -43.5z" />
<glyph unicode="&#xb1;" horiz-adv-x="345" d="M11 15l44 4q41 1 43 18l75 396q2 4 -0.5 7t-11.5 5.5t-27 3.5l-41 4v15h252l-5 -15l-43 -4q-40 -1 -44 -18l-75 -396q-2 -4 0 -7t11.5 -5.5t28.5 -3.5l40 -4v-15h-252z" />
<glyph unicode="&#xb2;" horiz-adv-x="282" d="M-16 281q14 12 40 33t38 30.5t32.5 27t30 26.5t25 24t22 24t16 22.5t13 24.5t6.5 23.5t3 25.5q0 34 -20.5 53.5t-50.5 19.5q-42 0 -84 -48l-5 7q55 80 127 80q40 0 67.5 -25.5t28.5 -64.5q0 -27 -9.5 -50.5t-35 -49.5t-45.5 -42t-67 -51.5t-72 -55.5v-2h119q30 0 48 12.5 t39 45.5l8 11h10l-47 -115h-237v14z" />
<glyph unicode="&#xb3;" horiz-adv-x="268" d="M88 245q-40 0 -68 11.5t-28 36.5q0 13 9.5 22.5t24.5 9.5q18 0 30.5 -19t1.5 -38q14 -11 38 -11q39 0 65.5 31t26.5 73q0 37 -22.5 58.5t-63.5 21.5q-17 0 -39 -6l-4 9q35 15 51 22.5t38 20t31 21.5t16 22.5t7 28.5q0 25 -17.5 41.5t-43.5 16.5q-50 0 -87 -48l-4 7 q49 78 128 78q36 0 62 -21.5t26 -51.5q0 -39 -32 -64t-93 -45v-2q4 1 13 1q44 -3 69.5 -30t25.5 -65q0 -51 -49.5 -91t-111.5 -40z" />
<glyph unicode="&#xb4;" d="M320 684h97l-209 -187h-12z" />
<glyph unicode="&#xb6;" horiz-adv-x="452" d="M375 254q-9 -3 -23 -3q-131 0 -207 48t-76 132q0 98 70 146.5t182 48.5h147l-124 -657h-22z" />
<glyph unicode="&#xb7;" horiz-adv-x="211" d="M99 163q-26 0 -44 18.5t-18 43.5q0 24 17.5 42t43.5 18t44 -17.5t18 -42.5t-17.5 -43.5t-43.5 -18.5z" />
<glyph unicode="&#xb8;" d="M2 -249q168 15 168 90q0 48 -83 48q-23 0 -55 -5l2 11l120 109h22l-72 -67q57 3 93 -18t36 -58q0 -57 -64.5 -87t-165.5 -34z" />
<glyph unicode="&#xb9;" horiz-adv-x="254" d="M23 278l35 2q24 1 26 12l62 321l-67 10l3 8l132 19l-70 -359q-1 -3 1 -5t8 -4t17 -2l28 -2l2 -11h-179z" />
<glyph unicode="&#xba;" horiz-adv-x="318" d="M176 300q62 0 107 137q12 46 12 99q0 39 -11 62t-32 23q-27 0 -58.5 -48t-47.5 -101q-14 -45 -14 -89q0 -37 11.5 -60t32.5 -23zM183 286q-49 0 -78.5 40t-29.5 100q0 73 53 142t114 69q50 0 81.5 -40.5t31.5 -100.5q0 -76 -53.5 -143t-118.5 -67z" />
<glyph unicode="&#xbb;" horiz-adv-x="452" d="M179 67l164 160l-107 149l8 10l187 -157l-1 -19l-248 -153zM-13 57l169 170l-108 159l8 11l185 -168l-1 -19l-249 -163z" />
<glyph unicode="&#xbc;" horiz-adv-x="646" d="M502 -29h-160v9l243 271l26 -2l-46 -241h67l-10 -37h-64l-22 -107h-55zM509 8l34 174h-3l-156 -174h125zM23 278l35 2q24 1 26 12l62 321l-67 10l3 8l132 19l-70 -359q-1 -3 1 -5t8 -4t17 -2l28 -2l2 -11h-179zM662 630h27l-678 -751h-27z" />
<glyph unicode="&#xbd;" horiz-adv-x="660" d="M356 -123q14 12 40 33t38 30.5t32.5 27t30 26.5t25 24t22 24t16 22.5t13 24.5t6.5 23.5t3 25.5q0 34 -20.5 53.5t-50.5 19.5q-42 0 -84 -48l-5 7q55 80 127 80q40 0 67.5 -25.5t28.5 -64.5q0 -27 -9.5 -50.5t-35 -49.5t-45.5 -42t-67 -51.5t-72 -55.5v-2h119 q30 0 48 12.5t39 45.5l8 11h10l-47 -115h-237v14zM23 278l35 2q24 1 26 12l62 321l-67 10l3 8l132 19l-70 -359q-1 -3 1 -5t8 -4t17 -2l28 -2l2 -11h-179zM662 630h27l-678 -751h-27z" />
<glyph unicode="&#xbe;" horiz-adv-x="620" d="M476 -29h-160v9l243 271l26 -2l-46 -241h67l-10 -37h-64l-22 -107h-55zM483 8l34 174h-3l-156 -174h125zM88 245q-40 0 -68 11.5t-28 36.5q0 13 9.5 22.5t24.5 9.5q18 0 30.5 -19t1.5 -38q14 -11 38 -11q39 0 65.5 31t26.5 73q0 37 -22.5 58.5t-63.5 21.5q-17 0 -39 -6 l-4 9q35 15 51 22.5t38 20t31 21.5t16 22.5t7 28.5q0 25 -17.5 41.5t-43.5 16.5q-50 0 -87 -48l-4 7q49 78 128 78q36 0 62 -21.5t26 -51.5q0 -39 -32 -64t-93 -45v-2q4 1 13 1q44 -3 69.5 -30t25.5 -65q0 -51 -49.5 -91t-111.5 -40zM636 630h27l-678 -751h-27z" />
<glyph unicode="&#xbf;" horiz-adv-x="321" d="M243 525q-26 0 -42.5 16.5t-16.5 40.5q0 25 16.5 42.5t42.5 17.5t43 -17.5t17 -42.5q0 -24 -17 -40.5t-43 -16.5zM188 -12q-77 0 -123.5 49.5t-46.5 114.5q0 61 28 94.5t93 54.5q36 11 53.5 18.5t30.5 21t13 32.5q0 32 -37 69l13 2q63 -56 63 -109q0 -42 -29.5 -64 t-95.5 -42q-67 -20 -89.5 -33.5t-22.5 -42.5q0 -33 43 -60.5t120 -27.5q30 0 46 4q5 -12 5 -23q0 -58 -64 -58z" />
<glyph unicode="&#xc0;" horiz-adv-x="607" d="M189 257l-52 -100q-46 -86 -48 -105q-2 -22 29 -29q11 -2 28 -4l34 -4l2 -15h-223l3 15l22 5q40 6 62 32.5t90 146.5l188 360l-4 36q19 4 43.5 18t34.5 26h13l61 -522q8 -59 19.5 -77t41.5 -20l36 -5l1 -15h-275l3 15l38 4q31 2 39 20.5t2 61.5l-16 156h-172zM359 279 l-25 253h-4l-130 -253h159zM248 851h90l61 -187h-12z" />
<glyph unicode="&#xc1;" horiz-adv-x="607" d="M189 257l-52 -100q-46 -86 -48 -105q-2 -22 29 -29q11 -2 28 -4l34 -4l2 -15h-223l3 15l22 5q40 6 62 32.5t90 146.5l188 360l-4 36q19 4 43.5 18t34.5 26h13l61 -522q8 -59 19.5 -77t41.5 -20l36 -5l1 -15h-275l3 15l38 4q31 2 39 20.5t2 61.5l-16 156h-172zM359 279 l-25 253h-4l-130 -253h159zM457 851h97l-209 -187h-12z" />
<glyph unicode="&#xc2;" horiz-adv-x="607" d="M189 257l-52 -100q-46 -86 -48 -105q-2 -22 29 -29q11 -2 28 -4l34 -4l2 -15h-223l3 15l22 5q40 6 62 32.5t90 146.5l188 360l-4 36q19 4 43.5 18t34.5 26h13l61 -522q8 -59 19.5 -77t41.5 -20l36 -5l1 -15h-275l3 15l38 4q31 2 39 20.5t2 61.5l-16 156h-172zM359 279 l-25 253h-4l-130 -253h159zM397 850h32l81 -194h-12l-94 116h-3l-146 -116h-10z" />
<glyph unicode="&#xc3;" horiz-adv-x="607" d="M189 257l-52 -100q-46 -86 -48 -105q-2 -22 29 -29q11 -2 28 -4l34 -4l2 -15h-223l3 15l22 5q40 6 62 32.5t90 146.5l188 360l-4 36q19 4 43.5 18t34.5 26h13l61 -522q8 -59 19.5 -77t41.5 -20l36 -5l1 -15h-275l3 15l38 4q31 2 39 20.5t2 61.5l-16 156h-172zM359 279 l-25 253h-4l-130 -253h159zM455 671q-33 0 -87.5 32.5t-72.5 32.5q-20 0 -31 -10.5t-22 -46.5h-13q15 61 34.5 86t56.5 25q32 0 87 -32.5t73 -32.5q20 0 31.5 10.5t22.5 46.5h14q-15 -60 -35.5 -85.5t-57.5 -25.5z" />
<glyph unicode="&#xc4;" horiz-adv-x="607" d="M189 257l-52 -100q-46 -86 -48 -105q-2 -22 29 -29q11 -2 28 -4l34 -4l2 -15h-223l3 15l22 5q40 6 62 32.5t90 146.5l188 360l-4 36q19 4 43.5 18t34.5 26h13l61 -522q8 -59 19.5 -77t41.5 -20l36 -5l1 -15h-275l3 15l38 4q31 2 39 20.5t2 61.5l-16 156h-172zM359 279 l-25 253h-4l-130 -253h159zM290 687q-25 0 -39.5 17.5t-14.5 37.5q0 21 14.5 39.5t39.5 18.5t39.5 -18.5t14.5 -39.5q0 -20 -14.5 -37.5t-39.5 -17.5zM476 687q-25 0 -39.5 17.5t-14.5 37.5q0 21 14.5 39.5t39.5 18.5t39.5 -18.5t14.5 -39.5q0 -20 -14.5 -37.5t-39.5 -17.5z " />
<glyph unicode="&#xc5;" horiz-adv-x="607" d="M396 624q34 0 53.5 21.5t19.5 53.5t-19.5 54t-53.5 22q-33 0 -53 -22.5t-20 -53.5q0 -32 20 -53.5t53 -21.5zM189 257l-52 -100q-46 -86 -48 -105q-2 -22 29 -29q11 -2 28 -4l34 -4l2 -15h-223l3 15l22 5q40 6 62 32.5t90 146.5l220 419q-49 24 -49 81q0 38 24 64t65 26 t65 -26t24 -64q0 -33 -19 -57t-52 -30l58 -495q8 -59 19.5 -77t41.5 -20l36 -5l1 -15h-275l3 15l38 4q31 2 39 20.5t2 61.5l-16 156h-172zM359 279l-25 252h-4l-130 -252h159z" />
<glyph unicode="&#xc6;" horiz-adv-x="834" d="M202 257l-67 -90q-72 -94 -79 -113q-8 -22 19 -29q10 -3 29 -6l26 -4l3 -15h-216l3 15l24 5q43 6 69.5 28t92.5 109l301 408q16 19 10 28t-45 13l-42 4l-2 15h479v-192h-18l-7 38q-10 33 -15.5 48t-19.5 36t-32.5 29.5t-50.5 15t-78 6.5h-53l-52 -276l34 1q75 2 103 14 t46 52l15 30l16 -1l-46 -213l-17 1l3 29q6 42 -18.5 53t-109.5 15l-30 1l-54 -290l89 -3q57 0 97.5 10t69 33t44 42.5t37.5 55.5l18 37l20 -1l-65 -196h-491l3 15l45 6q42 4 44 18l41 218h-173zM379 279l54 288h-3l-106 -144q-16 -21 -42 -56.5t-31 -42.5q-29 -38 -34 -45 h162z" />
<glyph unicode="&#xc7;" horiz-adv-x="663" d="M338 -14q-133 8 -210 85.5t-77 197.5q0 150 107 260.5t266 110.5q100 0 168 -37l70 16l-33 -187l-16 1l-31 139q-56 48 -150 48q-125 0 -202 -109.5t-77 -258.5q0 -113 57 -180t158 -67q105 0 188 97l38 68l18 -1l-52 -162l-39 1q-69 -23 -157 -23h-4l-52 -48 q57 3 93 -18t36 -58q0 -57 -64.5 -87t-165.5 -34l-1 11q168 15 168 90q0 48 -83 48q-23 0 -55 -5l2 11z" />
<glyph unicode="&#xc8;" horiz-adv-x="588" d="M-8 15l40 6q45 6 47 18l105 549q1 6 -6.5 9t-38.5 8l-32 5l-2 15h454l1 -192h-19l-6 38q-10 33 -16 48.5t-20 36t-32.5 29.5t-50.5 15.5t-78 6.5h-57l-53 -277l39 1q75 2 103 14t46 52l15 30l17 -1l-47 -213l-17 1l3 29q6 42 -18.5 53t-109.5 15l-34 1l-55 -290l93 -4 q57 0 98 10t69.5 32.5t44.5 43t37 56.5l19 37l19 -1l-64 -196h-497zM234 851h90l61 -187h-12z" />
<glyph unicode="&#xc9;" horiz-adv-x="588" d="M-8 15l40 6q45 6 47 18l105 549q1 6 -6.5 9t-38.5 8l-32 5l-2 15h454l1 -192h-19l-6 38q-10 33 -16 48.5t-20 36t-32.5 29.5t-50.5 15.5t-78 6.5h-57l-53 -277l39 1q75 2 103 14t46 52l15 30l17 -1l-47 -213l-17 1l3 29q6 42 -18.5 53t-109.5 15l-34 1l-55 -290l93 -4 q57 0 98 10t69.5 32.5t44.5 43t37 56.5l19 37l19 -1l-64 -196h-497zM431 851h97l-209 -187h-12z" />
<glyph unicode="&#xca;" horiz-adv-x="588" d="M-8 15l40 6q45 6 47 18l105 549q1 6 -6.5 9t-38.5 8l-32 5l-2 15h454l1 -192h-19l-6 38q-10 33 -16 48.5t-20 36t-32.5 29.5t-50.5 15.5t-78 6.5h-57l-53 -277l39 1q75 2 103 14t46 52l15 30l17 -1l-47 -213l-17 1l3 29q6 42 -18.5 53t-109.5 15l-34 1l-55 -290l93 -4 q57 0 98 10t69.5 32.5t44.5 43t37 56.5l19 37l19 -1l-64 -196h-497zM371 850h32l81 -194h-12l-94 116h-3l-146 -116h-10z" />
<glyph unicode="&#xcb;" horiz-adv-x="588" d="M-8 15l40 6q45 6 47 18l105 549q1 6 -6.5 9t-38.5 8l-32 5l-2 15h454l1 -192h-19l-6 38q-10 33 -16 48.5t-20 36t-32.5 29.5t-50.5 15.5t-78 6.5h-57l-53 -277l39 1q75 2 103 14t46 52l15 30l17 -1l-47 -213l-17 1l3 29q6 42 -18.5 53t-109.5 15l-34 1l-55 -290l93 -4 q57 0 98 10t69.5 32.5t44.5 43t37 56.5l19 37l19 -1l-64 -196h-497zM266 687q-25 0 -39.5 17.5t-14.5 37.5q0 21 14.5 39.5t39.5 18.5t39.5 -18.5t14.5 -39.5q0 -20 -14.5 -37.5t-39.5 -17.5zM452 687q-25 0 -39.5 17.5t-14.5 37.5q0 21 14.5 39.5t39.5 18.5t39.5 -18.5 t14.5 -39.5q0 -20 -14.5 -37.5t-39.5 -17.5z" />
<glyph unicode="&#xcc;" horiz-adv-x="344" d="M-3 15l49 6q42 4 44 18l105 549q1 4 -2 7t-13 5.5t-30 4.5l-38 5l-2 15h273l-3 -15l-48 -6q-42 -5 -44 -18l-105 -549q-1 -7 7 -10t38 -7l38 -5l2 -15h-274zM131 851h90l61 -187h-12z" />
<glyph unicode="&#xcd;" horiz-adv-x="344" d="M-3 15l49 6q42 4 44 18l105 549q1 4 -2 7t-13 5.5t-30 4.5l-38 5l-2 15h273l-3 -15l-48 -6q-42 -5 -44 -18l-105 -549q-1 -7 7 -10t38 -7l38 -5l2 -15h-274zM337 851h97l-209 -187h-12z" />
<glyph unicode="&#xce;" horiz-adv-x="344" d="M-3 15l49 6q42 4 44 18l105 549q1 4 -2 7t-13 5.5t-30 4.5l-38 5l-2 15h273l-3 -15l-48 -6q-42 -5 -44 -18l-105 -549q-1 -7 7 -10t38 -7l38 -5l2 -15h-274zM268 850h32l81 -194h-12l-94 116h-3l-146 -116h-10z" />
<glyph unicode="&#xcf;" horiz-adv-x="344" d="M-3 15l49 6q42 4 44 18l105 549q1 4 -2 7t-13 5.5t-30 4.5l-38 5l-2 15h273l-3 -15l-48 -6q-42 -5 -44 -18l-105 -549q-1 -7 7 -10t38 -7l38 -5l2 -15h-274zM170 687q-25 0 -39.5 17.5t-14.5 37.5q0 21 14.5 39.5t39.5 18.5t39.5 -18.5t14.5 -39.5q0 -20 -14.5 -37.5 t-39.5 -17.5zM356 687q-25 0 -39.5 17.5t-14.5 37.5q0 21 14.5 39.5t39.5 18.5t39.5 -18.5t14.5 -39.5q0 -20 -14.5 -37.5t-39.5 -17.5z" />
<glyph unicode="&#xd0;" horiz-adv-x="664" d="M367 326l2 -21h-145l-51 -266l66 -22q146 2 229 101.5t83 253.5q0 104 -54 169.5t-163 65.5h-53l-53 -281h139zM39 305l4 21h91l50 262q1 6 -6.5 9t-38.5 8l-33 5l-1 15l239 1q151 2 230.5 -71t79.5 -189q0 -153 -109 -259.5t-296 -106.5h-260l3 15l43 6q42 5 44 18 l51 266h-91z" />
<glyph unicode="&#xd1;" horiz-adv-x="673" d="M202 544h-3l-87 -439q-8 -49 3 -64.5t52 -21.5l27 -4l1 -15h-214l3 15l28 4q35 4 53 22t24 66l88 433q-6 27 -19.5 43.5t-45.5 21.5l-22 5l-2 15h180l256 -482h3l75 377q8 49 -3 65.5t-51 20.5l-27 4l-2 15h215l-3 -15l-28 -4q-36 -4 -53 -21t-25 -67l-104 -524h-21z M481 671q-33 0 -87.5 32.5t-72.5 32.5q-20 0 -31 -10.5t-22 -46.5h-13q15 61 34.5 86t56.5 25q32 0 87 -32.5t73 -32.5q20 0 31.5 10.5t22.5 46.5h14q-15 -60 -35.5 -85.5t-57.5 -25.5z" />
<glyph unicode="&#xd2;" horiz-adv-x="719" d="M351 7q73 0 132.5 59t90 144.5t30.5 172.5q0 104 -53 170t-147 66q-75 0 -134.5 -59.5t-89 -145t-29.5 -172.5q0 -104 53.5 -169.5t146.5 -65.5zM357 -14q-135 0 -219 86.5t-84 213.5q0 141 97.5 247t248.5 106q133 0 217 -87t84 -214q0 -144 -98.5 -248t-245.5 -104z M295 851h90l61 -187h-12z" />
<glyph unicode="&#xd3;" horiz-adv-x="719" d="M351 7q73 0 132.5 59t90 144.5t30.5 172.5q0 104 -53 170t-147 66q-75 0 -134.5 -59.5t-89 -145t-29.5 -172.5q0 -104 53.5 -169.5t146.5 -65.5zM357 -14q-135 0 -219 86.5t-84 213.5q0 141 97.5 247t248.5 106q133 0 217 -87t84 -214q0 -144 -98.5 -248t-245.5 -104z M497 851h97l-209 -187h-12z" />
<glyph unicode="&#xd4;" horiz-adv-x="719" d="M351 7q73 0 132.5 59t90 144.5t30.5 172.5q0 104 -53 170t-147 66q-75 0 -134.5 -59.5t-89 -145t-29.5 -172.5q0 -104 53.5 -169.5t146.5 -65.5zM357 -14q-135 0 -219 86.5t-84 213.5q0 141 97.5 247t248.5 106q133 0 217 -87t84 -214q0 -144 -98.5 -248t-245.5 -104z M438 850h32l81 -194h-12l-94 116h-3l-146 -116h-10z" />
<glyph unicode="&#xd5;" horiz-adv-x="719" d="M351 7q73 0 132.5 59t90 144.5t30.5 172.5q0 104 -53 170t-147 66q-75 0 -134.5 -59.5t-89 -145t-29.5 -172.5q0 -104 53.5 -169.5t146.5 -65.5zM357 -14q-135 0 -219 86.5t-84 213.5q0 141 97.5 247t248.5 106q133 0 217 -87t84 -214q0 -144 -98.5 -248t-245.5 -104z M503 671q-33 0 -87.5 32.5t-72.5 32.5q-20 0 -31 -10.5t-22 -46.5h-13q15 61 34.5 86t56.5 25q32 0 87 -32.5t73 -32.5q20 0 31.5 10.5t22.5 46.5h14q-15 -60 -35.5 -85.5t-57.5 -25.5z" />
<glyph unicode="&#xd6;" horiz-adv-x="719" d="M351 7q73 0 132.5 59t90 144.5t30.5 172.5q0 104 -53 170t-147 66q-75 0 -134.5 -59.5t-89 -145t-29.5 -172.5q0 -104 53.5 -169.5t146.5 -65.5zM357 -14q-135 0 -219 86.5t-84 213.5q0 141 97.5 247t248.5 106q133 0 217 -87t84 -214q0 -144 -98.5 -248t-245.5 -104z M334 687q-25 0 -39.5 17.5t-14.5 37.5q0 21 14.5 39.5t39.5 18.5t39.5 -18.5t14.5 -39.5q0 -20 -14.5 -37.5t-39.5 -17.5zM520 687q-25 0 -39.5 17.5t-14.5 37.5q0 21 14.5 39.5t39.5 18.5t39.5 -18.5t14.5 -39.5q0 -20 -14.5 -37.5t-39.5 -17.5z" />
<glyph unicode="&#xd8;" horiz-adv-x="719" d="M546 558q-52 61 -142 61q-75 0 -134.5 -59.5t-89 -145t-29.5 -172.5q0 -98 48 -163zM558 543q-26 -35 -54 -75q-17 -24 -58 -80.5t-61 -84.5q-25 -34 -82.5 -113.5t-90.5 -125.5q55 -57 139 -57q73 0 132.5 59t90 144.5t30.5 172.5q0 98 -46 160zM585 580 q55 -42 85.5 -105t30.5 -137q0 -144 -98.5 -248t-245.5 -104q-93 0 -168 46l-76 -105h-24l84 116q-57 41 -88 104.5t-31 138.5q0 141 97.5 247t248.5 106q97 0 170 -48l71 98h23q-4 -7 -14 -19.5t-14 -18.5q-32 -47 -51 -71z" />
<glyph unicode="&#xd9;" horiz-adv-x="687" d="M345 -15q-108 0 -175.5 43t-67.5 127q0 42 10 81l67 352q1 4 -2 7t-13 5.5t-30 4.5l-42 5l-2 15h282l-4 -15l-52 -6q-39 -4 -44 -18l-65 -340q-8 -43 -8 -74q0 -150 175 -150q76 0 121 46t65 148l61 304q8 49 -2.5 64.5t-51.5 21.5l-27 4l-2 15h215l-4 -15l-27 -4 q-35 -4 -52.5 -21.5t-25.5 -66.5l-62 -309q-21 -113 -78 -168.5t-159 -55.5zM325 851h90l61 -187h-12z" />
<glyph unicode="&#xda;" horiz-adv-x="687" d="M345 -15q-108 0 -175.5 43t-67.5 127q0 42 10 81l67 352q1 4 -2 7t-13 5.5t-30 4.5l-42 5l-2 15h282l-4 -15l-52 -6q-39 -4 -44 -18l-65 -340q-8 -43 -8 -74q0 -150 175 -150q76 0 121 46t65 148l61 304q8 49 -2.5 64.5t-51.5 21.5l-27 4l-2 15h215l-4 -15l-27 -4 q-35 -4 -52.5 -21.5t-25.5 -66.5l-62 -309q-21 -113 -78 -168.5t-159 -55.5zM524 851h97l-209 -187h-12z" />
<glyph unicode="&#xdb;" horiz-adv-x="687" d="M345 -15q-108 0 -175.5 43t-67.5 127q0 42 10 81l67 352q1 4 -2 7t-13 5.5t-30 4.5l-42 5l-2 15h282l-4 -15l-52 -6q-39 -4 -44 -18l-65 -340q-8 -43 -8 -74q0 -150 175 -150q76 0 121 46t65 148l61 304q8 49 -2.5 64.5t-51.5 21.5l-27 4l-2 15h215l-4 -15l-27 -4 q-35 -4 -52.5 -21.5t-25.5 -66.5l-62 -309q-21 -113 -78 -168.5t-159 -55.5zM457 850h32l81 -194h-12l-94 116h-3l-146 -116h-10z" />
<glyph unicode="&#xdc;" horiz-adv-x="687" d="M345 -15q-108 0 -175.5 43t-67.5 127q0 42 10 81l67 352q1 4 -2 7t-13 5.5t-30 4.5l-42 5l-2 15h282l-4 -15l-52 -6q-39 -4 -44 -18l-65 -340q-8 -43 -8 -74q0 -150 175 -150q76 0 121 46t65 148l61 304q8 49 -2.5 64.5t-51.5 21.5l-27 4l-2 15h215l-4 -15l-27 -4 q-35 -4 -52.5 -21.5t-25.5 -66.5l-62 -309q-21 -113 -78 -168.5t-159 -55.5zM344 687q-25 0 -39.5 17.5t-14.5 37.5q0 21 14.5 39.5t39.5 18.5t39.5 -18.5t14.5 -39.5q0 -20 -14.5 -37.5t-39.5 -17.5zM530 687q-25 0 -39.5 17.5t-14.5 37.5q0 21 14.5 39.5t39.5 18.5 t39.5 -18.5t14.5 -39.5q0 -20 -14.5 -37.5t-39.5 -17.5z" />
<glyph unicode="&#xdd;" horiz-adv-x="615" d="M126 15l58 6q42 4 44 18l46 237l-101 257q-16 40 -29.5 54t-41.5 18l-32 5l-1 15h272l-4 -15l-28 -2q-39 -4 -45 -21.5t12 -60.5l81 -218h3l127 179q53 75 56 90q3 16 -23 23q-9 2 -26 5l-29 5l-2 15h220l-4 -15l-26 -4q-31 -4 -62 -29.5t-78 -92.5l-145 -201l-47 -246 q-1 -4 2 -7t13 -5.5t30 -4.5l48 -5l1 -15h-292zM483 851h97l-209 -187h-12z" />
<glyph unicode="&#xde;" horiz-adv-x="556" d="M294 179q72 0 114.5 53t42.5 129q0 54 -30 85t-86 31h-78l-53 -281q49 -17 90 -17zM-17 15l52 6q40 4 45 18l105 549q1 4 -2 7t-13 5.5t-30 4.5l-42 5l-1 15h281l-4 -15l-52 -6q-39 -4 -44 -18l-17 -89h83q98 0 152.5 -43t54.5 -109q0 -82 -69.5 -134t-174.5 -52 q-51 0 -107 14l-27 -136q-1 -5 2 -8t13 -5.5t30 -3.5l55 -5l2 -15h-295z" />
<glyph unicode="&#xdf;" horiz-adv-x="492" d="M336 417q54 -41 92.5 -106t34.5 -131q-4 -76 -57 -135t-121 -57q-45 2 -76.5 29.5t-29.5 61.5q2 27 20.5 44t43.5 16q32 -1 45 -26.5t-2.5 -49t-51.5 -22.5q4 -11 19 -23t34 -13q41 0 69 39.5t30 97.5q4 68 -32 138.5t-109 126.5l2 10q74 5 110.5 38.5t39.5 103.5 q2 36 -16.5 64t-53.5 28q-21 0 -37 -9.5t-27.5 -25t-22 -45.5t-17.5 -59.5t-17 -78.5l-65 -305q-26 -113 -51.5 -181.5t-61.5 -105.5q-41 -41 -106 -41q-33 0 -55.5 16.5t-22.5 42.5q0 19 13.5 34.5t34.5 15.5q27 0 42 -25.5t3 -54.5q10 0 15 1q4 0 11.5 0.5t9.5 0.5 q23 6 42 62.5t50 205.5l55 294l-83 2l11 33l83 7q29 124 78.5 179.5t122.5 55.5q69 0 107 -36.5t34 -90.5q-7 -101 -137 -126z" />
<glyph unicode="&#xe0;" horiz-adv-x="453" d="M140 47q42 0 145 195q7 13 15.5 41t8.5 37q-5 30 -30 52t-57 22q-24 0 -44 -20q-30 -30 -57 -110.5t-27 -140.5q0 -76 46 -76zM310 -13q-17 0 -49.5 13t-32.5 23q0 28 48 164h-4q-8 -14 -24 -39q-29 -48 -43 -69.5t-34 -47t-36.5 -34.5t-34.5 -9q-37 0 -62 28.5t-25 75.5 q0 75 40 151.5t95 131.5q65 67 127 67q24 0 34 -20t12 -71h4l34 95l75 -3l-72 -200l-57 -201l46 -7l70 91l9 -7q-31 -64 -63.5 -98t-56.5 -34zM164 684h90l61 -187h-12z" />
<glyph unicode="&#xe1;" horiz-adv-x="453" d="M140 47q42 0 145 195q7 13 15.5 41t8.5 37q-5 30 -30 52t-57 22q-24 0 -44 -20q-30 -30 -57 -110.5t-27 -140.5q0 -76 46 -76zM310 -13q-17 0 -49.5 13t-32.5 23q0 28 48 164h-4q-8 -14 -24 -39q-29 -48 -43 -69.5t-34 -47t-36.5 -34.5t-34.5 -9q-37 0 -62 28.5t-25 75.5 q0 75 40 151.5t95 131.5q65 67 127 67q24 0 34 -20t12 -71h4l34 95l75 -3l-72 -200l-57 -201l46 -7l70 91l9 -7q-31 -64 -63.5 -98t-56.5 -34zM357 684h97l-209 -187h-12z" />
<glyph unicode="&#xe2;" horiz-adv-x="453" d="M140 47q42 0 145 195q7 13 15.5 41t8.5 37q-5 30 -30 52t-57 22q-24 0 -44 -20q-30 -30 -57 -110.5t-27 -140.5q0 -76 46 -76zM310 -13q-17 0 -49.5 13t-32.5 23q0 28 48 164h-4q-8 -14 -24 -39q-29 -48 -43 -69.5t-34 -47t-36.5 -34.5t-34.5 -9q-37 0 -62 28.5t-25 75.5 q0 75 40 151.5t95 131.5q65 67 127 67q24 0 34 -20t12 -71h4l34 95l75 -3l-72 -200l-57 -201l46 -7l70 91l9 -7q-31 -64 -63.5 -98t-56.5 -34zM290 683h32l81 -194h-12l-94 116h-3l-146 -116h-10z" />
<glyph unicode="&#xe3;" horiz-adv-x="453" d="M140 47q42 0 145 195q7 13 15.5 41t8.5 37q-5 30 -30 52t-57 22q-24 0 -44 -20q-30 -30 -57 -110.5t-27 -140.5q0 -76 46 -76zM310 -13q-17 0 -49.5 13t-32.5 23q0 28 48 164h-4q-8 -14 -24 -39q-29 -48 -43 -69.5t-34 -47t-36.5 -34.5t-34.5 -9q-37 0 -62 28.5t-25 75.5 q0 75 40 151.5t95 131.5q65 67 127 67q24 0 34 -20t12 -71h4l34 95l75 -3l-72 -200l-57 -201l46 -7l70 91l9 -7q-31 -64 -63.5 -98t-56.5 -34zM351 504q-33 0 -87.5 32.5t-72.5 32.5q-20 0 -31 -10.5t-22 -46.5h-13q15 61 34.5 86t56.5 25q32 0 87 -32.5t73 -32.5 q20 0 31.5 10.5t22.5 46.5h14q-15 -60 -35.5 -85.5t-57.5 -25.5z" />
<glyph unicode="&#xe4;" horiz-adv-x="453" d="M140 47q42 0 145 195q7 13 15.5 41t8.5 37q-5 30 -30 52t-57 22q-24 0 -44 -20q-30 -30 -57 -110.5t-27 -140.5q0 -76 46 -76zM310 -13q-17 0 -49.5 13t-32.5 23q0 28 48 164h-4q-8 -14 -24 -39q-29 -48 -43 -69.5t-34 -47t-36.5 -34.5t-34.5 -9q-37 0 -62 28.5t-25 75.5 q0 75 40 151.5t95 131.5q65 67 127 67q24 0 34 -20t12 -71h4l34 95l75 -3l-72 -200l-57 -201l46 -7l70 91l9 -7q-31 -64 -63.5 -98t-56.5 -34zM193 520q-25 0 -39.5 17.5t-14.5 37.5q0 21 14.5 39.5t39.5 18.5t39.5 -18.5t14.5 -39.5q0 -20 -14.5 -37.5t-39.5 -17.5z M379 520q-25 0 -39.5 17.5t-14.5 37.5q0 21 14.5 39.5t39.5 18.5t39.5 -18.5t14.5 -39.5q0 -20 -14.5 -37.5t-39.5 -17.5z" />
<glyph unicode="&#xe5;" horiz-adv-x="453" d="M140 47q42 0 145 195q7 13 15.5 41t8.5 37q-5 30 -30 52t-57 22q-24 0 -44 -20q-30 -30 -57 -110.5t-27 -140.5q0 -76 46 -76zM310 -13q-17 0 -49.5 13t-32.5 23q0 28 48 164h-4q-8 -14 -24 -39q-29 -48 -43 -69.5t-34 -47t-36.5 -34.5t-34.5 -9q-37 0 -62 28.5t-25 75.5 q0 75 40 151.5t95 131.5q65 67 127 67q24 0 34 -20t12 -71h4l34 95l75 -3l-72 -200l-57 -201l46 -7l70 91l9 -7q-31 -64 -63.5 -98t-56.5 -34zM291 518q33 0 53 22t20 54q0 31 -20 53t-53 22q-34 0 -53.5 -21.5t-19.5 -53.5t19.5 -54t53.5 -22zM291 504q-41 0 -65.5 26 t-23.5 64q0 38 24 64t65 26t65 -26t24 -64t-24 -64t-65 -26z" />
<glyph unicode="&#xe6;" horiz-adv-x="604" d="M354 227q101 32 140 64t39 81q0 21 -14.5 35.5t-35.5 14.5q-23 0 -50 -25q-50 -47 -81 -169zM135 49q44 0 146 193q21 40 26 70q-6 34 -31 58t-57 24q-25 0 -45 -20q-30 -30 -55 -107.5t-25 -137.5q0 -38 11.5 -59t29.5 -21zM97 -13q-37 0 -60.5 31t-23.5 80 q0 75 38.5 148.5t93.5 128.5q68 70 125 70q54 0 65 -105q77 106 167 106q48 0 77 -22.5t29 -59.5q0 -47 -57.5 -78.5t-199.5 -72.5q-9 -27 -9 -67q0 -105 82 -105q32 0 60 20t66 70l9 -7q-87 -137 -174 -137q-55 0 -91 42t-36 102q0 26 2 33q-58 -94 -94 -135.5t-69 -41.5z " />
<glyph unicode="&#xe7;" horiz-adv-x="354" d="M130 -12q-50 4 -82.5 45.5t-32.5 97.5q0 111 78 213t174 102q40 0 71 -22t31 -54q0 -23 -15.5 -39.5t-35.5 -16.5q-19 0 -33 11.5t-14 28.5q0 27 27 47q-28 23 -53 23q-24 0 -55 -31q-36 -37 -63.5 -109.5t-27.5 -137.5q0 -105 77 -105q33 0 59.5 19.5t66.5 70.5l9 -7 q-41 -63 -78 -98.5t-81 -38.5l-54 -50q57 3 93 -18t36 -58q0 -57 -64.5 -87t-165.5 -34l-1 11q168 15 168 90q0 48 -83 48q-23 0 -55 -5l2 11z" />
<glyph unicode="&#xe8;" horiz-adv-x="362" d="M112 227q101 32 140 64t39 81q0 21 -14.5 35.5t-35.5 14.5q-24 0 -51 -25q-50 -50 -80 -169zM142 -13q-55 0 -91 42t-36 102q0 72 35 145.5t92.5 121.5t117.5 48q48 0 77 -22.5t29 -59.5q0 -47 -58 -79t-200 -72q-9 -38 -9 -67q0 -105 82 -105q32 0 60 20t67 70l9 -7 q-87 -137 -175 -137zM130 684h90l61 -187h-12z" />
<glyph unicode="&#xe9;" horiz-adv-x="362" d="M112 227q101 32 140 64t39 81q0 21 -14.5 35.5t-35.5 14.5q-24 0 -51 -25q-50 -50 -80 -169zM142 -13q-55 0 -91 42t-36 102q0 72 35 145.5t92.5 121.5t117.5 48q48 0 77 -22.5t29 -59.5q0 -47 -58 -79t-200 -72q-9 -38 -9 -67q0 -105 82 -105q32 0 60 20t67 70l9 -7 q-87 -137 -175 -137zM339 684h97l-209 -187h-12z" />
<glyph unicode="&#xea;" horiz-adv-x="362" d="M112 227q101 32 140 64t39 81q0 21 -14.5 35.5t-35.5 14.5q-24 0 -51 -25q-50 -50 -80 -169zM142 -13q-55 0 -91 42t-36 102q0 72 35 145.5t92.5 121.5t117.5 48q48 0 77 -22.5t29 -59.5q0 -47 -58 -79t-200 -72q-9 -38 -9 -67q0 -105 82 -105q32 0 60 20t67 70l9 -7 q-87 -137 -175 -137zM270 683h32l81 -194h-12l-94 116h-3l-146 -116h-10z" />
<glyph unicode="&#xeb;" horiz-adv-x="362" d="M112 227q101 32 140 64t39 81q0 21 -14.5 35.5t-35.5 14.5q-24 0 -51 -25q-50 -50 -80 -169zM142 -13q-55 0 -91 42t-36 102q0 72 35 145.5t92.5 121.5t117.5 48q48 0 77 -22.5t29 -59.5q0 -47 -58 -79t-200 -72q-9 -38 -9 -67q0 -105 82 -105q32 0 60 20t67 70l9 -7 q-87 -137 -175 -137zM165 520q-25 0 -39.5 17.5t-14.5 37.5q0 21 14.5 39.5t39.5 18.5t39.5 -18.5t14.5 -39.5q0 -20 -14.5 -37.5t-39.5 -17.5zM351 520q-25 0 -39.5 17.5t-14.5 37.5q0 21 14.5 39.5t39.5 18.5t39.5 -18.5t14.5 -39.5q0 -20 -14.5 -37.5t-39.5 -17.5z" />
<glyph unicode="&#xec;" horiz-adv-x="249" d="M103 -13q-17 0 -49 12t-32 21q0 8 52 159.5t74 211.5l-54 5l-67 -96l-10 8q32 65 68 101.5t67 36.5q22 0 44 -18t22 -38q0 -23 -118 -347l51 -8l70 90l9 -7q-28 -60 -65 -95.5t-62 -35.5zM58 684h90l61 -187h-12z" />
<glyph unicode="&#xed;" horiz-adv-x="249" d="M103 -13q-17 0 -49 12t-32 21q0 8 52 159.5t74 211.5l-54 5l-67 -96l-10 8q32 65 68 101.5t67 36.5q22 0 44 -18t22 -38q0 -23 -118 -347l51 -8l70 90l9 -7q-28 -60 -65 -95.5t-62 -35.5zM257 684h97l-209 -187h-12z" />
<glyph unicode="&#xee;" horiz-adv-x="249" d="M192 684h32l74 -193h-13l-90 116h-3l-135 -116h-11zM103 -13q-17 0 -49 12t-32 21q0 8 52 159.5t74 211.5l-54 5l-67 -96l-10 8q32 65 68 101.5t67 36.5q22 0 44 -18t22 -38q0 -23 -118 -347l51 -8l70 90l9 -7q-28 -60 -65 -95.5t-62 -35.5z" />
<glyph unicode="&#xef;" horiz-adv-x="249" d="M103 -13q-17 0 -49 12t-32 21q0 8 52 159.5t74 211.5l-54 5l-67 -96l-10 8q32 65 68 101.5t67 36.5q22 0 44 -18t22 -38q0 -23 -118 -347l51 -8l70 90l9 -7q-28 -60 -65 -95.5t-62 -35.5zM107 520q-25 0 -39.5 17.5t-14.5 37.5q0 21 14.5 39.5t39.5 18.5t39.5 -18.5 t14.5 -39.5q0 -20 -14.5 -37.5t-39.5 -17.5zM293 520q-25 0 -39.5 17.5t-14.5 37.5q0 21 14.5 39.5t39.5 18.5t39.5 -18.5t14.5 -39.5q0 -20 -14.5 -37.5t-39.5 -17.5z" />
<glyph unicode="&#xf0;" horiz-adv-x="414" d="M155 6q43 0 81.5 52.5t58.5 123.5q17 57 17 130q0 50 -16 81t-43 31q-36 0 -75.5 -59.5t-62.5 -130.5q-18 -64 -18 -118q0 -47 15.5 -78.5t42.5 -31.5zM104 518l6 22l111 34q-38 41 -89 63l7 18q70 -21 126 -68l125 39l-4 -21l-104 -32q113 -111 114 -266 q0 -121 -72.5 -220t-160.5 -99q-63 0 -102 53t-39 132q0 95 69 182.5t148 87.5q42 0 64 -28q-19 82 -68 143z" />
<glyph unicode="&#xf1;" horiz-adv-x="483" d="M335 -13q-17 0 -48 13t-31 23q0 18 66 191q7 21 20 54.5t20 54t7 29.5q0 15 -14.5 27t-31.5 12q-23 0 -72.5 -74.5t-114.5 -211.5l-33 -109l-81 5l51 160l62 230l-43 5l-68 -96l-9 8q30 65 64.5 102t64.5 37q16 0 40.5 -18.5t24.5 -37.5q0 -20 -21.5 -92t-47.5 -141l5 -2 q99 200 152 253q36 36 75 36q27 0 50.5 -18t23.5 -41q0 -43 -48 -169q-7 -20 -18.5 -51t-21 -55.5t-18 -46t-8.5 -22.5l46 -7l70 91l9 -7q-31 -63 -64 -97.5t-58 -34.5zM367 504q-33 0 -87.5 32.5t-72.5 32.5q-20 0 -31 -10.5t-22 -46.5h-13q15 61 34.5 86t56.5 25 q32 0 87 -32.5t73 -32.5q20 0 31.5 10.5t22.5 46.5h14q-15 -60 -35.5 -85.5t-57.5 -25.5z" />
<glyph unicode="&#xf2;" horiz-adv-x="410" d="M155 6q43 0 80 52t57 124q17 59 17 130q0 52 -14.5 82.5t-41.5 30.5q-37 0 -76 -59.5t-62 -131.5q-18 -64 -18 -118q0 -47 15.5 -78.5t42.5 -31.5zM163 -12q-63 0 -102 53t-39 132q0 94 69.5 182.5t148.5 88.5q65 0 106.5 -53t41.5 -131q0 -97 -71.5 -184.5t-153.5 -87.5 zM156 684h90l61 -187h-12z" />
<glyph unicode="&#xf3;" horiz-adv-x="410" d="M155 6q43 0 80 52t57 124q17 59 17 130q0 52 -14.5 82.5t-41.5 30.5q-37 0 -76 -59.5t-62 -131.5q-18 -64 -18 -118q0 -47 15.5 -78.5t42.5 -31.5zM163 -12q-63 0 -102 53t-39 132q0 94 69.5 182.5t148.5 88.5q65 0 106.5 -53t41.5 -131q0 -97 -71.5 -184.5t-153.5 -87.5 zM345 684h97l-209 -187h-12z" />
<glyph unicode="&#xf4;" horiz-adv-x="410" d="M155 6q43 0 80 52t57 124q17 59 17 130q0 52 -14.5 82.5t-41.5 30.5q-37 0 -76 -59.5t-62 -131.5q-18 -64 -18 -118q0 -47 15.5 -78.5t42.5 -31.5zM163 -12q-63 0 -102 53t-39 132q0 94 69.5 182.5t148.5 88.5q65 0 106.5 -53t41.5 -131q0 -97 -71.5 -184.5t-153.5 -87.5 zM283 683h32l81 -194h-12l-94 116h-3l-146 -116h-10z" />
<glyph unicode="&#xf5;" horiz-adv-x="410" d="M155 6q43 0 80 52t57 124q17 59 17 130q0 52 -14.5 82.5t-41.5 30.5q-37 0 -76 -59.5t-62 -131.5q-18 -64 -18 -118q0 -47 15.5 -78.5t42.5 -31.5zM163 -12q-63 0 -102 53t-39 132q0 94 69.5 182.5t148.5 88.5q65 0 106.5 -53t41.5 -131q0 -97 -71.5 -184.5t-153.5 -87.5 zM345 504q-33 0 -87.5 32.5t-72.5 32.5q-20 0 -31 -10.5t-22 -46.5h-13q15 61 34.5 86t56.5 25q32 0 87 -32.5t73 -32.5q20 0 31.5 10.5t22.5 46.5h14q-15 -60 -35.5 -85.5t-57.5 -25.5z" />
<glyph unicode="&#xf6;" horiz-adv-x="410" d="M155 6q43 0 80 52t57 124q17 59 17 130q0 52 -14.5 82.5t-41.5 30.5q-37 0 -76 -59.5t-62 -131.5q-18 -64 -18 -118q0 -47 15.5 -78.5t42.5 -31.5zM163 -12q-63 0 -102 53t-39 132q0 94 69.5 182.5t148.5 88.5q65 0 106.5 -53t41.5 -131q0 -97 -71.5 -184.5t-153.5 -87.5 zM188 520q-25 0 -39.5 17.5t-14.5 37.5q0 21 14.5 39.5t39.5 18.5t39.5 -18.5t14.5 -39.5q0 -20 -14.5 -37.5t-39.5 -17.5zM374 520q-25 0 -39.5 17.5t-14.5 37.5q0 21 14.5 39.5t39.5 18.5t39.5 -18.5t14.5 -39.5q0 -20 -14.5 -37.5t-39.5 -17.5z" />
<glyph unicode="&#xf7;" horiz-adv-x="532" d="M253 10q96 0 161 76.5t65 180.5q0 84 -54.5 138.5t-139.5 54.5q-98 0 -162.5 -77t-64.5 -181q0 -84 54.5 -138t140.5 -54zM252 -13q-98 0 -159 59.5t-61 155.5q0 117 73 199.5t180 82.5q98 0 159 -60.5t61 -156.5q0 -117 -73 -198.5t-180 -81.5z" />
<glyph unicode="&#xf8;" horiz-adv-x="410" d="M304 365q-15 59 -51 59t-75.5 -59.5t-62.5 -130.5q-18 -64 -18 -118q0 -13 2 -35zM104 59q15 -52 51 -52q43 0 80 51.5t57 122.5q17 60 17 131q0 23 -2 29zM344 393q44 -52 44 -133q0 -97 -71.5 -184.5t-153.5 -87.5q-48 0 -85 34l-108 -150h-21q12 17 32 44.5t26 36.5 l40 56q7 9 19 25q-44 53 -44 139q0 95 69.5 182.5t148.5 87.5q53 0 93 -38l124 173h21q-11 -15 -34 -46.5t-33 -46.5q-7 -9 -23 -31.5t-23 -31.5q-14 -20 -21 -29z" />
<glyph unicode="&#xf9;" horiz-adv-x="483" d="M339 -14q-16 0 -40 18.5t-24 37.5q0 21 21.5 95t46.5 139l-5 1q-100 -202 -151 -253q-36 -36 -75 -36q-27 0 -50.5 18t-23.5 41q0 43 48 169q57 160 65 176l-46 5l-68 -97l-10 7q31 65 64.5 102t57.5 37q17 0 48 -13t31 -23q0 -7 -9.5 -35t-29 -81t-27.5 -75 q-47 -123 -47 -139q0 -14 14.5 -26t31.5 -12q23 0 72.5 74.5t114.5 210.5l33 110l80 -5l-50 -160l-30 -112q-33 -115 -33 -119l43 -6l69 90l9 -7q-30 -63 -65 -97.5t-65 -34.5zM191 684h90l61 -187h-12z" />
<glyph unicode="&#xfa;" horiz-adv-x="483" d="M339 -14q-16 0 -40 18.5t-24 37.5q0 21 21.5 95t46.5 139l-5 1q-100 -202 -151 -253q-36 -36 -75 -36q-27 0 -50.5 18t-23.5 41q0 43 48 169q57 160 65 176l-46 5l-68 -97l-10 7q31 65 64.5 102t57.5 37q17 0 48 -13t31 -23q0 -7 -9.5 -35t-29 -81t-27.5 -75 q-47 -123 -47 -139q0 -14 14.5 -26t31.5 -12q23 0 72.5 74.5t114.5 210.5l33 110l80 -5l-50 -160l-30 -112q-33 -115 -33 -119l43 -6l69 90l9 -7q-30 -63 -65 -97.5t-65 -34.5zM383 684h97l-209 -187h-12z" />
<glyph unicode="&#xfb;" horiz-adv-x="483" d="M339 -14q-16 0 -40 18.5t-24 37.5q0 21 21.5 95t46.5 139l-5 1q-100 -202 -151 -253q-36 -36 -75 -36q-27 0 -50.5 18t-23.5 41q0 43 48 169q57 160 65 176l-46 5l-68 -97l-10 7q31 65 64.5 102t57.5 37q17 0 48 -13t31 -23q0 -7 -9.5 -35t-29 -81t-27.5 -75 q-47 -123 -47 -139q0 -14 14.5 -26t31.5 -12q23 0 72.5 74.5t114.5 210.5l33 110l80 -5l-50 -160l-30 -112q-33 -115 -33 -119l43 -6l69 90l9 -7q-30 -63 -65 -97.5t-65 -34.5zM321 683h32l81 -194h-12l-94 116h-3l-146 -116h-10z" />
<glyph unicode="&#xfc;" horiz-adv-x="483" d="M339 -14q-16 0 -40 18.5t-24 37.5q0 21 21.5 95t46.5 139l-5 1q-100 -202 -151 -253q-36 -36 -75 -36q-27 0 -50.5 18t-23.5 41q0 43 48 169q57 160 65 176l-46 5l-68 -97l-10 7q31 65 64.5 102t57.5 37q17 0 48 -13t31 -23q0 -7 -9.5 -35t-29 -81t-27.5 -75 q-47 -123 -47 -139q0 -14 14.5 -26t31.5 -12q23 0 72.5 74.5t114.5 210.5l33 110l80 -5l-50 -160l-30 -112q-33 -115 -33 -119l43 -6l69 90l9 -7q-30 -63 -65 -97.5t-65 -34.5zM226 520q-25 0 -39.5 17.5t-14.5 37.5q0 21 14.5 39.5t39.5 18.5t39.5 -18.5t14.5 -39.5 q0 -20 -14.5 -37.5t-39.5 -17.5zM412 520q-25 0 -39.5 17.5t-14.5 37.5q0 21 14.5 39.5t39.5 18.5t39.5 -18.5t14.5 -39.5q0 -20 -14.5 -37.5t-39.5 -17.5z" />
<glyph unicode="&#xfd;" horiz-adv-x="423" d="M-46 -204q-39 0 -60.5 16.5t-21.5 46.5q0 21 15 34.5t35 13.5q28 0 43 -23t3 -52l31 -8q32 8 88.5 52t91.5 84q0 168 -22.5 302t-53.5 134l-20 1l-63 -97l-10 8q35 74 60.5 106t62.5 32q66 0 89.5 -81t27.5 -313l4 -1q39 65 79 165.5t42 148.5q-27 -14 -53 -0.5t-26 35.5 q-2 21 11.5 36.5t36.5 15.5q25 0 42 -18t17 -52q0 -87 -70 -222.5t-140 -201.5q-5 -4 -28 -26.5t-37.5 -36t-40.5 -34.5t-45.5 -33.5t-43.5 -22t-44 -9.5zM369 684h97l-209 -187h-12z" />
<glyph unicode="&#xfe;" horiz-adv-x="418" d="M167 5q22 0 52 30q37 37 69.5 120.5t32.5 141.5q0 90 -46 90q-30 0 -65 -52t-85 -161q-10 -24 -20 -60t-10 -46q7 -24 28.5 -43.5t43.5 -19.5zM-130 -236l30 4q22 2 29.5 5t9.5 12l225 816q6 21 -5 23l-75 10l3 12l176 27l-31 -115q-75 -249 -105 -338q-2 -6 0.5 -6.5 t4.5 4.5q55 121 99 174t86 53q38 0 61 -39.5t23 -99.5q0 -119 -78 -219t-168 -100q-46 0 -70 43h-1l-67 -247q-2 -4 2 -7t14.5 -5.5t28.5 -2.5l41 -4l2 -15h-237z" />
<glyph unicode="&#xff;" horiz-adv-x="423" d="M-46 -204q-39 0 -60.5 16.5t-21.5 46.5q0 21 15 34.5t35 13.5q28 0 43 -23t3 -52l31 -8q32 8 88.5 52t91.5 84q0 168 -22.5 302t-53.5 134l-20 1l-63 -97l-10 8q35 74 60.5 106t62.5 32q66 0 89.5 -81t27.5 -313l4 -1q39 65 79 165.5t42 148.5q-27 -14 -53 -0.5t-26 35.5 q-2 21 11.5 36.5t36.5 15.5q25 0 42 -18t17 -52q0 -87 -70 -222.5t-140 -201.5q-5 -4 -28 -26.5t-37.5 -36t-40.5 -34.5t-45.5 -33.5t-43.5 -22t-44 -9.5zM199 520q-25 0 -39.5 17.5t-14.5 37.5q0 21 14.5 39.5t39.5 18.5t39.5 -18.5t14.5 -39.5q0 -20 -14.5 -37.5 t-39.5 -17.5zM385 520q-25 0 -39.5 17.5t-14.5 37.5q0 21 14.5 39.5t39.5 18.5t39.5 -18.5t14.5 -39.5q0 -20 -14.5 -37.5t-39.5 -17.5z" />
<glyph unicode="&#x152;" horiz-adv-x="932" d="M427 19l108 568l-66 21q-126 -2 -205 -76t-99 -211q-13 -80 2 -146t68 -111t140 -45h52zM353 0q-164 0 -238 90t-55 224q21 138 126.5 224.5t272.5 86.5h446l-3 -192h-16l-6 38q-12 40 -20.5 59t-29 40t-55.5 28.5t-91 7.5h-51l-52 -276l32 1q73 2 103.5 15.5t48.5 52.5 l12 28l16 -1l-47 -213l-16 1l3 29q6 42 -18.5 53t-109.5 15l-28 1l-55 -290l87 -3q57 0 98 10t69.5 33t44 42.5t37.5 55.5l18 37l20 -1l-65 -196h-478z" />
<glyph unicode="&#x153;" horiz-adv-x="635" d="M385 227q101 32 140 64t39 81q0 21 -14.5 35.5t-35.5 14.5q-24 0 -51 -25q-50 -50 -80 -169zM155 6q43 0 80 52t57 124q17 59 17 130q0 52 -14.5 82.5t-41.5 30.5q-37 0 -76 -59.5t-62 -131.5q-18 -64 -18 -118q0 -47 15.5 -78.5t42.5 -31.5zM163 -12q-63 0 -102 53 t-39 132q0 95 69 183t149 88q94 0 128 -98q34 46 77 73t88 27q48 0 77 -22.5t29 -59.5q0 -47 -58 -79t-200 -72q-9 -38 -9 -67q0 -105 82 -105q32 0 60 20t67 70l9 -7q-86 -136 -175 -136q-77 0 -110 77q-64 -77 -142 -77z" />
<glyph unicode="&#x178;" horiz-adv-x="615" d="M126 15l58 6q42 4 44 18l46 237l-101 257q-16 40 -29.5 54t-41.5 18l-32 5l-1 15h272l-4 -15l-28 -2q-39 -4 -45 -21.5t12 -60.5l81 -218h3l127 179q53 75 56 90q3 16 -23 23q-9 2 -26 5l-29 5l-2 15h220l-4 -15l-26 -4q-31 -4 -62 -29.5t-78 -92.5l-145 -201l-47 -246 q-1 -4 2 -7t13 -5.5t30 -4.5l48 -5l1 -15h-292zM296 687q-25 0 -39.5 17.5t-14.5 37.5q0 21 14.5 39.5t39.5 18.5t39.5 -18.5t14.5 -39.5q0 -20 -14.5 -37.5t-39.5 -17.5zM482 687q-25 0 -39.5 17.5t-14.5 37.5q0 21 14.5 39.5t39.5 18.5t39.5 -18.5t14.5 -39.5 q0 -20 -14.5 -37.5t-39.5 -17.5z" />
<glyph unicode="&#x2c6;" d="M258 683h32l81 -194h-12l-94 116h-3l-146 -116h-10z" />
<glyph unicode="&#x2dc;" d="M319 504q-33 0 -87.5 32.5t-72.5 32.5q-20 0 -31 -10.5t-22 -46.5h-13q15 61 34.5 86t56.5 25q32 0 87 -32.5t73 -32.5q20 0 31.5 10.5t22.5 46.5h14q-15 -60 -35.5 -85.5t-57.5 -25.5z" />
<glyph unicode="&#x2000;" horiz-adv-x="425" />
<glyph unicode="&#x2001;" horiz-adv-x="851" />
<glyph unicode="&#x2002;" horiz-adv-x="425" />
<glyph unicode="&#x2003;" horiz-adv-x="851" />
<glyph unicode="&#x2004;" horiz-adv-x="283" />
<glyph unicode="&#x2005;" horiz-adv-x="212" />
<glyph unicode="&#x2006;" horiz-adv-x="141" />
<glyph unicode="&#x2007;" horiz-adv-x="141" />
<glyph unicode="&#x2008;" horiz-adv-x="106" />
<glyph unicode="&#x2009;" horiz-adv-x="170" />
<glyph unicode="&#x200a;" horiz-adv-x="47" />
<glyph unicode="&#x2010;" horiz-adv-x="294" d="M33 256h244l-7 -44h-247z" />
<glyph unicode="&#x2011;" horiz-adv-x="294" d="M33 256h244l-7 -44h-247z" />
<glyph unicode="&#x2012;" horiz-adv-x="294" d="M33 256h244l-7 -44h-247z" />
<glyph unicode="&#x2013;" horiz-adv-x="439" d="M22 256h412l-8 -44h-414z" />
<glyph unicode="&#x2014;" horiz-adv-x="909" d="M22 256h882l-7 -44h-885z" />
<glyph unicode="&#x2018;" horiz-adv-x="196" d="M148 402q-32 0 -52.5 22.5t-20.5 55.5q0 54 49.5 101t130.5 69l6 -8q-47 -20 -81 -53t-34 -69q0 -15 7 -27t16.5 -19t19 -12t16.5 -7t7 -3q-14 -50 -64 -50z" />
<glyph unicode="&#x2019;" horiz-adv-x="196" d="M59 417q45 17 76.5 48.5t31.5 67.5q0 15 -7.5 27.5t-17.5 19.5t-20.5 12t-18 7t-7.5 3q3 20 20 35.5t42 15.5q32 0 54 -23.5t22 -58.5q0 -53 -46.5 -97.5t-119.5 -65.5z" />
<glyph unicode="&#x201a;" horiz-adv-x="196" d="M-43 -118q45 17 76.5 48.5t31.5 67.5q0 15 -7.5 27.5t-17.5 19.5t-20.5 12t-18 7t-7.5 3q3 20 20 35.5t42 15.5q32 0 54 -23.5t22 -58.5q0 -53 -46.5 -97.5t-119.5 -65.5z" />
<glyph unicode="&#x201c;" d="M150 402q-32 0 -53.5 23t-21.5 58q0 53 46 97t120 66l8 -8q-44 -17 -75.5 -49.5t-31.5 -66.5q0 -16 7 -28.5t17.5 -19.5t21 -12t17.5 -7t7 -3q-2 -20 -19.5 -35t-42.5 -15zM338 402q-32 0 -53.5 23t-21.5 58q0 53 45.5 97t119.5 66l9 -8q-44 -17 -75.5 -49.5t-31.5 -66.5 q0 -16 7 -28.5t17.5 -19.5t21 -12t17.5 -7t7 -3q-3 -20 -20 -35t-42 -15z" />
<glyph unicode="&#x201d;" d="M249 417q44 17 75.5 48.5t31.5 67.5q0 15 -7 27.5t-17.5 19.5t-21 12t-17.5 7t-7 3q2 20 19 35.5t43 15.5q32 0 53.5 -23.5t21.5 -58.5q0 -53 -46.5 -97.5t-119.5 -65.5zM61 417q45 17 76.5 48.5t31.5 67.5q0 15 -7 27.5t-17.5 19.5t-21 12t-17.5 7t-7 3q2 20 19 35.5 t43 15.5q32 0 53.5 -23.5t21.5 -58.5q0 -53 -46.5 -97.5t-119.5 -65.5z" />
<glyph unicode="&#x201e;" d="M147 -118q44 17 75.5 48.5t31.5 67.5q0 15 -7 27.5t-17.5 19.5t-21 12t-17.5 7t-7 3q2 20 19 35.5t43 15.5q32 0 53.5 -23.5t21.5 -58.5q0 -53 -46.5 -97.5t-119.5 -65.5zM-41 -118q45 17 76.5 48.5t31.5 67.5q0 15 -7 27.5t-17.5 19.5t-21 12t-17.5 7t-7 3q2 20 19 35.5 t43 15.5q32 0 53.5 -23.5t21.5 -58.5q0 -53 -46.5 -97.5t-119.5 -65.5z" />
<glyph unicode="&#x2022;" horiz-adv-x="434" d="M219 39q-21 0 -71 21t-63 36q-15 15 -36 64.5t-21 71.5t21 71.5t36 64.5t64.5 35.5t70.5 20.5q22 0 70.5 -20.5t65.5 -35.5q15 -17 35.5 -65.5t20.5 -70.5t-20 -71t-36 -65t-65.5 -36.5t-71.5 -20.5z" />
<glyph unicode="&#x2026;" horiz-adv-x="631" d="M285 -13q-26 0 -44 18.5t-18 43.5q0 24 17.5 42t43.5 18t44 -17.5t18 -42.5t-17.5 -43.5t-43.5 -18.5zM502 -13q-26 0 -44 18.5t-18 43.5t18 42.5t44 17.5t43.5 -18t17.5 -42q0 -25 -17.5 -43.5t-43.5 -18.5zM68 -13q-27 0 -45 18.5t-18 43.5q0 24 18 42t44 18 q27 0 44.5 -17.5t17.5 -42.5t-17.5 -43.5t-43.5 -18.5z" />
<glyph unicode="&#x202f;" horiz-adv-x="170" />
<glyph unicode="&#x2039;" horiz-adv-x="266" d="M18 215l2 19l249 164l4 -10l-170 -172l107 -157l-7 -11z" />
<glyph unicode="&#x203a;" horiz-adv-x="267" d="M-1 57l165 169l-103 159l7 12l185 -168l-3 -20l-247 -162z" />
<glyph unicode="&#x205f;" horiz-adv-x="212" />
<glyph unicode="&#x20ac;" horiz-adv-x="496" d="M286 -14q-92 0 -148 69t-65 165h-70l3 19h65q0 3 0.5 8.5t0.5 7.5q0 52 10 93h-55l3 19h57q34 116 124 190.5t187 74.5q65 0 104 -23.5t39 -57.5q0 -22 -14.5 -38t-37.5 -16q-32 0 -43 33t3 57q-21 24 -60 24q-80 0 -136.5 -65.5t-78.5 -178.5h199l3 -19h-205 q-8 -46 -8 -85q0 -16 1 -24h186l3 -19h-187q9 -83 53.5 -132t116.5 -49q68 0 136 63l8 -11q-39 -50 -90.5 -77.5t-103.5 -27.5z" />
<glyph unicode="&#x2122;" horiz-adv-x="559" d="M344 414l13 1q12 1 15.5 8.5t4.5 37.5l4 140q-4 9 -16 11l-15 3l-1 10h83l49 -162h4l56 162h87l-1 -10l-19 -3q-13 -1 -13 -7l4 -168q0 -12 3 -15t12 -6l15 -2l1 -11h-105l1 11l17 2q11 4 11 22l-3 165h-4l-70 -196h-18l-63 193h-2h-1l-3 -141v-5q0 -26 2.5 -31.5 t16.5 -7.5l13 -1l1 -11h-80zM160 414l21 2q12 2 12 7v191h-7q-40 0 -64 -57l-4 -9h-9l8 77h201l3 -76h-10l-3 9q-12 30 -25.5 43t-38.5 13h-7v-192q0 -3 13 -6l19 -2v-11h-110z" />
<glyph unicode="&#x25fc;" horiz-adv-x="445" d="M0 445h445v-445h-445v445z" />
</font>
</defs>
</svg>
